<?xml version="1.0" encoding="utf-8"?>
<!-- Generator: Adobe Illustrator 16.0.0, SVG Export Plug-In . SVG Version: 6.00 Build 0)  -->
<!DOCTYPE svg PUBLIC "-//W3C//DTD SVG 1.1//EN" "http://www.w3.org/Graphics/SVG/1.1/DTD/svg11.dtd">
<svg version="1.1" id="Ebene_1" xmlns="http://www.w3.org/2000/svg" xmlns:xlink="http://www.w3.org/1999/xlink" x="0px" y="0px"
	 width="300px" height="300px" viewBox="0 0 300 300" enable-background="new 0 0 300 300" xml:space="preserve">
<g display="none">
	<g display="inline">
		<path d="M267.12,124.8c-0.479-12.96-2.16-30-13.2-38.64c-7.439-5.76-18-6-24,0.72c-11.279-19.68-28.561-35.76-50.16-40.08
			c0.24,0,0.24,0,0.48-0.24c3.6-1.2,7.92-1.44,11.279-3.36c1.681-0.96,1.92-4.08,0-5.04c-0.24-0.96-0.72-1.68-1.92-1.92
			c-38.64-8.88-81.84,0.96-108.479,31.92c-4.32,5.04-8.16,10.56-11.04,16.32c-3.6-5.04-10.8-6.48-17.28-4.08
			c-13.44,5.04-16.8,21.36-18.72,34.08c-1.92,13.44-2.16,30,7.2,41.04c6.96,8.16,18.72,11.28,27.84,5.28c1.68,3.12,3.6,6,5.76,8.88
			c24.48,32.641,67.68,41.041,106.08,35.041c16.8-2.641,34.56-8.4,47.04-20.4c6.721-6.48,11.04-14.641,13.68-23.28
			c3.84,2.399,9.12,2.64,13.44,0.479C267.12,155.76,267.359,136.08,267.12,124.8z M176.88,41.04c-3.12,1.2-6.479,2.64-8.399,5.04
			c-0.48,0.48-0.721,0.96-0.961,1.44l0,0c-0.479,1.68,0.24,3.6,2.16,4.32c8.641,2.88,16.561,6.24,24,10.32
			c-18.72-0.24-38.64,11.04-45.84,28.08c-5.76-14.4-20.4-25.44-36.24-25.2c-9.84,0.24-19.92,5.28-28.32,12.48
			C104.64,48.96,141.6,38.88,176.88,41.04z M57.6,115.92c0.96,1.44,1.44,3.12,2.16,4.8c-0.48,11.28,1.2,22.56,5.52,33.12
			C45.84,164.16,42,134.88,43.2,122.64c0.48-6.72,1.44-13.44,3.6-19.68c0.96-2.88,1.92-6.48,4.32-8.88
			C54.24,90.96,61.92,90,66,92.64c-1.92,5.04-3.6,10.08-4.56,15.12c-1.2-1.2-2.4-2.16-4.08-2.4c-1.92,0-2.88,1.44-3.12,3.12
			C54,111.36,56.4,113.76,57.6,115.92z M234.721,147.36C229.439,197.04,164.88,204.96,126,194.4
			c-40.32-11.041-66.24-49.68-55.92-89.28C79.2,94.56,87.6,83.28,100.56,76.8c20.4-9.84,41.04,9.6,42.96,29.28
			c0.24,1.92,1.44,2.88,2.64,3.12c1.2,1.2,4.08,0.48,4.561-1.44C156.24,93.6,162,80.64,177.359,74.64
			c13.92-5.28,25.681-0.48,37.92,5.28c1.681,1.92,3.121,4.08,4.561,6.24C231.359,103.92,236.88,126.72,234.721,147.36z
			 M243.359,152.641c1.201-6.96,1.201-13.92,0.721-20.881c-0.24-2.88-0.721-5.76-1.2-8.88c0.24-0.72,0.72-1.44,0.96-2.16
			c1.2-2.4,3.6-4.08,4.801-6.48c1.68-3.6-1.681-6.96-5.281-5.28c-1.199,0.48-2.159,1.44-3.119,2.64
			c-1.44-5.04-3.36-10.32-5.52-15.12c0,0,0-0.24,0.239-0.24c7.681-15.6,19.2,4.08,21.601,10.56c2.16,5.76,3.119,12,3.359,18
			C259.92,134.88,257.04,158.16,243.359,152.641z"/>
		<path d="M143.04,152.16c1.92,0.96,4.56,0.48,5.76-1.439c0.96-1.681,2.16-3.361,2.16-5.281c0.24-2.88-3.12-4.32-5.52-3.12
			c-1.68,0.96-2.88,2.88-3.84,4.32C140.16,148.08,141.12,150.96,143.04,152.16z"/>
		<path d="M161.04,151.92c1.681-1.199,2.64-3.6,1.44-5.52c-0.961-1.44-1.92-2.88-3.36-3.84c-1.92-1.44-5.521,0.48-5.28,3.12
			c0.24,1.92,0.96,3.36,1.92,4.8C156.721,152.16,159.359,153.12,161.04,151.92z"/>
		<path d="M110.16,130.56c0-0.24-0.24-0.72-0.48-0.96v-0.24c-0.96-1.68-2.4-3.12-4.56-3.6c-2.64-0.48-5.28,0-6.96,1.92
			c-1.92,1.92-2.64,4.56-2.16,7.2c0.96,5.28,7.68,7.44,12,4.32c2.4-1.68,3.36-4.8,2.64-7.68C110.4,131.04,110.4,130.8,110.16,130.56
			z"/>
		<path d="M197.52,128.4c-2.64,0-5.52,1.44-6.72,3.84c-1.2,1.92-1.44,4.56-0.479,6.48c0.24,0.72,0.479,1.44,0.72,1.92
			c2.88,5.04,10.56,4.56,13.44-0.24C207.359,135.12,203.52,128.4,197.52,128.4z"/>
		<path d="M160.561,162.48c-4.561,1.199-7.44,4.08-12.48,3.359c-4.08-0.48-6.72-2.88-10.32-4.32c-2.16-0.959-3.6,1.44-3.36,3.36
			c1.92,12.96,25.68,15.12,31.2,4.08C167.04,165.359,164.4,161.279,160.561,162.48z"/>
	</g>
</g>
<g display="none">
	<g display="inline">
		<path d="M180.721,48.48c0.239,0,0.239,0,0.479-0.24c3.6-1.2,7.92-1.44,11.28-3.36c1.68-0.96,1.92-4.08,0-5.04
			c-0.24-0.96-0.721-1.68-1.92-1.92c-38.641-8.88-81.84,0.96-108.48,31.92C57.6,98.4,52.56,141.12,75.6,171.6
			c24.48,32.641,67.68,41.041,106.08,35.041c16.801-2.641,34.561-8.4,47.041-20.4c14.159-13.68,18-33.6,16.319-52.56
			C241.92,98.16,217.92,56.16,180.721,48.48z M235.68,149.04c-5.279,49.681-69.84,57.601-108.72,47.04
			C81.6,183.84,54.48,136.8,76.08,92.64c18.96-38.88,61.44-52.32,101.76-49.92c-3.119,1.2-6.48,2.64-8.4,5.04
			c-0.479,0.48-0.719,0.96-0.959,1.44l0,0c-0.48,1.68,0.24,3.6,2.16,4.32C191.04,60.48,208.8,69.6,220.8,88.08
			C232.32,105.84,237.84,128.4,235.68,149.04z"/>
		<path d="M258,98.4c0.48,0.24,0.96,0.48,1.439,0.72c1.681,0.96,4.561-0.24,4.32-2.4c-1.68-13.68-7.199-26.16-16.8-36
			c6.24-7.92,6.479-20.16-1.681-28.08c-7.439-7.44-18-7.2-25.92-2.64c-9.6-7.44-20.879-10.56-32.879-11.52c1.92-1.92,3.84-4.08,6-6
			c2.399-2.4,0.72-7.2-2.881-6.96c-11.039,0.72-25.199,2.16-34.32,9.36C149.76,8.4,142.32,5.04,133.92,3.12
			c-3.12-0.72-6.24,2.64-4.32,5.76c0.48,0.72,0.72,1.44,1.2,2.16c-11.04,0.96-22.08,2.4-32.64,5.76c-0.48,0.24-0.72,0.24-1.2,0.48
			c-8.16-6.24-20.64-7.2-29.28,0C59.76,24,57.36,37.44,62.4,46.32c-20.64,13.44-28.08,40.56-28.56,63.6c0,3.12,3.6,3.36,5.28,1.44
			c1.2-1.68,2.64-3.12,4.08-4.56c-3.84,20.4-6.48,41.52,1.92,60.96c7.68,18,22.8,31.2,41.04,37.68c0.96,0.24,1.68,0.24,2.4,0
			c14.16,17.761,40.8,28.32,62.161,29.28c0.719,0.96,1.92,1.681,3.359,1.921c18.24,1.439,36.72-5.281,50.16-17.281
			c0,0.48,0.24,1.201,0.24,1.681c0.24,2.16,3.359,3.12,5.039,2.16c24-15.36,48.961-41.04,50.4-71.28c1.68,0.48,3.6-0.24,4.08-2.16
			C268.32,132.72,265.68,114.24,258,98.4z M243.12,47.28c0,5.28-3.601,10.56-9.601,12.96c-1.199-1.44-2.64-3.12-4.08-4.32
			C233.279,51.84,237.359,43.92,243.12,47.28z M237.84,37.68c0.24,0.24,0.721,0.48,0.96,0.72c-0.96,0-1.68,0.24-2.64,0.48
			c-5.52,1.44-10.08,6.72-12.24,12c-2.88-2.16-6-4.32-9.12-6C220.32,37.92,229.2,30.96,237.84,37.68z M72.72,24
			c4.56-3.84,11.28-4.56,16.56-1.92c4.08,2.16,6.24,6,8.16,10.08c-3.36,1.44-6.72,3.36-9.6,5.76c-2.88-5.52-7.2-10.8-13.68-12
			c-0.96-0.24-1.92-0.24-2.88,0C71.52,25.2,72.24,24.48,72.72,24z M82.56,42.24c-2.16,1.92-4.56,4.32-6.72,6.72
			c-4.56-4.08-8.16-9.6-8.16-14.88C73.44,29.52,78.96,36.72,82.56,42.24z M258.48,141.84c-1.44-0.96-3.601-0.72-4.08,1.44
			c-6.24,30-19.2,52.32-43.2,70.32c0-0.959,0-1.92,0-2.879c0-3.601-4.56-5.521-7.2-2.881c-14.16,13.92-30.24,19.92-49.68,19.44
			c-0.48,0-0.721,0-1.2,0c-0.24-0.24-0.72-0.24-0.96-0.24c-12.24-1.681-23.52-4.319-34.56-9.84S98.4,203.04,88.8,195.6
			c-1.68-1.199-3.6-0.72-4.56,0.721C68.88,189.84,56.16,177.6,50.4,161.76c-7.44-20.16-2.64-42.24,1.44-62.4
			c0.48-2.88-2.4-5.52-5.04-3.84c-2.64,1.68-4.8,3.36-6.72,5.28C42.72,81.36,53.76,66.48,66,50.88c1.68,1.44,3.6,2.64,5.76,3.36
			c-1.92,2.88-3.12,6-3.12,8.88c0,2.4,2.88,4.32,5.04,2.88c6.24-4.32,9.6-12.24,15.36-17.52c6.48-5.76,14.4-9.36,21.6-14.16
			c1.92-1.44,1.44-4.8-1.2-4.8c-1.68,0-3.12,0.24-4.56,0.48c-0.48-2.16-0.96-4.08-1.92-5.76c10.8-2.88,21.36-5.52,32.64-6.48
			c1.92-0.24,3.36-1.44,3.36-3.36c0-0.48,0-0.96,0-1.44c4.8,1.68,9.12,4.08,13.92,6.48c0.24,0.96,0.96,1.92,2.16,1.68
			c8.399-0.72,16.319-3.6,24.479-5.52c-1.199,1.44-2.399,2.64-3.6,4.08c-2.16,2.4-0.72,6.24,2.641,6.24c12.959,0,24,3.84,35.76,8.64
			c-2.16,2.4-3.84,5.04-4.801,8.4c-3.119-1.2-4.799,3.6-2.16,5.28c6,3.84,11.761,7.68,16.801,12.72c4.8,4.8,7.92,10.56,12.24,15.6
			c1.92,2.16,5.039-0.24,4.56-2.64c-0.479-2.16-1.44-4.32-2.399-6.48c2.16-0.72,3.84-1.92,5.52-3.12
			c5.279,8.16,9.359,16.32,12.24,25.44c-1.92-0.96-3.84-1.92-5.76-2.88c-3.121-1.2-6.24,3.12-4.561,5.76
			C256.08,108,259.68,124.08,258.48,141.84z"/>
		<path d="M179.76,147.6c-2.64,5.28-2.64,9.121-9.6,10.08c-6.24,0.961-11.04-1.199-12.48-7.2c0.721-0.72,1.44-1.44,1.92-2.16
			c2.881-3.12,5.521-6.24,8.16-9.6c2.881-4.08-3.359-8.88-6.72-5.28c-1.92,1.92-3.36,4.08-5.04,6c-0.721,0.96-1.68,2.64-2.88,3.84
			c-1.92-1.44-4.32-4.08-5.52-5.28c-2.64-1.68-4.8-3.6-7.2-5.04s-5.52,1.44-3.84,3.84c2.4,3.36,5.28,6.24,8.16,9.36
			c1.44,1.44,2.88,3.6,4.8,4.8c-0.96,2.64-1.68,4.8-3.84,6.72c-2.88,2.16-6.72,3.12-10.08,3.12c-3.6,0-7.44-1.44-9.12-4.56
			c-1.44-2.4-0.96-5.28-1.44-8.16c-0.24-1.44-2.4-2.4-3.6-1.44c-4.56,3.12-4.32,9.12-2.16,13.68c2.88,5.52,8.4,8.4,14.4,9.119
			c6.72,0.721,16.08-2.399,20.88-8.159c4.319,3.84,11.039,5.76,16.319,5.52c5.28-0.239,10.56-2.399,13.92-6.72
			c3.12-3.84,4.32-9.6,0.72-13.44C183.6,145.2,180.721,145.44,179.76,147.6z"/>
		<path d="M102.72,116.88c-1.92,1.44-3.12,4.08-3.12,6.48c0,1.92,0.72,3.84,1.92,5.04c0.24,0.24,0.24,0.48,0.48,0.72
			c1.68,1.92,4.56,2.64,7.2,2.16c5.28-0.96,7.92-7.2,5.52-11.76C112.56,115.44,106.56,114,102.72,116.88z"/>
		<path d="M188.16,120.48c-2.16,1.68-3.36,4.32-3.12,7.2c0.239,2.4,1.44,4.8,3.36,6c1.92,1.44,4.32,2.16,6.959,1.68
			c5.521-1.2,7.681-7.44,5.281-12.24C198.48,118.08,192.24,117.36,188.16,120.48z"/>
	</g>
</g>
<g display="none">
	<g display="inline">
		<path d="M241.92,134.16c-1.199-12.96-5.04-26.64-11.279-39.36C241.92,83.52,246,60.24,233.52,49.44
			c-11.52-10.08-30.479-5.76-38.879,6.24c-5.281-2.88-11.041-5.04-17.041-6.24c0.24,0,0.24,0,0.48-0.24
			c3.6-1.2,7.92-1.44,11.279-3.36c1.681-0.96,1.92-4.08,0-5.04c-0.239-0.96-0.719-1.68-1.92-1.92
			c-23.279-5.28-48.239-3.84-70.319,5.04c-9.36-15.12-32.64-17.28-46.32-5.76C60,47.28,59.04,72.24,72,79.92
			c-18,27.84-19.92,65.04,0.48,92.4c24.48,32.64,67.92,41.039,106.081,35.039c16.799-2.639,34.56-8.399,47.039-20.399
			C239.76,173.279,243.6,153.359,241.92,134.16z M232.8,150c-5.28,49.68-69.84,57.6-108.72,47.04
			C78.72,184.561,51.6,137.76,73.2,93.6c2.16-4.56,4.8-8.88,7.68-12.96l0,0c0.96-1.2,1.2-2.64-0.24-3.6
			c-5.52-4.32-9.84-12-10.08-19.44c1.44-4.8,6-8.16,11.28-7.44c6.24,0.96,11.04,6,12.24,12.24c0.96,4.56,8.4,2.16,6.48-2.64
			c-3.84-9.12-11.04-17.28-22.08-15.84l0,0l0,0c12.48-6.48,25.68-1.68,34.32,8.4c1.44,1.92,4.08,1.44,5.76,0
			c17.52-7.2,37.2-9.6,56.64-8.4c-3.12,1.2-6.479,2.64-8.4,5.04c-0.479,0.48-0.72,0.96-0.96,1.44l0,0c-0.48,1.68,0.24,3.6,2.16,4.32
			c8.641,2.88,16.561,6.24,24,10.32c1.2,1.92,3.84,2.64,5.76,0.96c7.44-7.44,18-18.72,28.801-9.84c-1.44-0.24-2.641-0.24-3.84,0
			c-8.16,1.2-14.4,7.92-17.521,15.12c-1.921,4.32,4.319,8.4,6.479,3.84s4.561-9.36,9.36-11.52c4.56-1.92,7.44-0.48,10.56,1.44
			c1.68,9.12-4.56,20.4-10.32,26.4c-2.399,2.4-0.719,6.24,1.921,7.2C230.88,114.48,234.48,132.72,232.8,150z"/>
		<path d="M174.24,148.8c-1.44,2.16-1.44,4.56-2.4,6.96c-1.199,2.641-3.359,5.04-6.48,5.76c-2.639,0.721-5.52,0.24-7.439-1.92
			c-1.68-1.68-1.92-4.08-2.16-6.24c5.52-2.159,11.52-7.679,12-12.719c0.721-7.44-10.32-8.4-15.359-8.88
			c-5.28-0.479-17.28-0.24-16.561,7.92c-0.24,0.48-0.24,1.2,0.24,1.92c3.36,4.32,6,10.08,11.04,12c-2.16,5.28-5.76,9.601-12.24,8.16
			c-6.48-1.199-8.4-6.479-11.52-11.28c-1.44-2.16-4.56-1.2-4.8,1.2c-0.96,10.08,9.84,18.961,19.44,18.961
			c5.28,0,10.32-2.881,13.2-6.961c3.36,4.08,8.399,6.721,13.2,6.721c5.039-0.24,10.08-2.881,12.959-6.961
			c2.881-3.84,5.521-10.319,2.4-14.399C178.32,146.88,175.68,146.88,174.24,148.8z M148.8,146.4c-2.4-0.72-4.56-3.12-6.72-5.28
			c2.4-2.4,12.24-2.16,16.8-0.48c-0.72,1.2-2.159,2.16-2.88,2.88C153.84,145.68,152.16,147.6,148.8,146.4z"/>
		<path d="M119.76,115.68c-1.68-2.64-4.8-3.84-7.68-3.36c-1.68,0.24-3.12,1.2-4.08,2.4c-1.68,0.96-2.88,2.4-3.12,4.32
			c-0.96,5.52,4.32,10.08,9.6,8.88C119.76,126.96,122.64,120.48,119.76,115.68z"/>
		<path d="M176.4,116.64c-0.24,0.24-0.24,0.72-0.24,1.2c-2.881,4.8,0.96,11.28,6.48,11.52c2.879,0.24,5.52-1.44,7.199-3.6
			c1.68-2.4,1.68-5.52,0.48-8.16C187.68,112.32,179.04,110.88,176.4,116.64z"/>
	</g>
</g>
<g display="none">
	<g display="inline">
		<path d="M229.92,108.72C244.8,88.8,248.641,62.4,248.641,38.4c0-2.4-1.92-4.32-4.32-4.32c-22.561,0-43.2,10.32-59.521,25.44
			c-3.6-1.44-7.2-2.64-11.04-3.36c0.24,0,0.24,0,0.48-0.24c3.6-1.2,7.92-1.44,11.279-3.36c1.681-0.96,1.92-4.08,0-5.04
			c-0.24-0.96-0.72-1.68-1.92-1.92c-21.119-4.8-43.68-4.08-64.08,2.64c-7.92-8.88-18-14.88-29.28-18.48
			c-7.68-2.64-26.64-8.64-34.32-3.84c-7.44,4.56-3.36,18.96-2.16,25.92c1.92,12.96,5.28,27.12,12,38.88
			c-15.84,27.12-16.56,62.16,2.88,88.32c24.48,32.64,67.68,41.04,106.081,35.04c16.799-2.641,34.559-8.4,47.039-20.4
			c14.16-13.68,18-33.6,16.32-52.56C237.12,130.32,234.24,119.28,229.92,108.72z M64.32,66c-1.68-6.72-7.68-24.24-4.56-31.2
			c14.64,11.76,28.32,22.8,39.6,38.4c2.4,3.12,7.68,0,5.28-3.12C94.32,56.4,81.6,42.48,66.96,32.64c7.92,0.96,20.4,5.76,23.76,7.2
			c9.6,4.08,17.76,10.08,24.72,18c2.88,3.12,6.48,0.96,7.44-2.16c15.36-4.8,31.92-6.48,48.24-5.52c-3.12,1.2-6.479,2.64-8.399,5.04
			c-0.48,0.48-0.721,0.96-0.961,1.44l0,0c-0.48,1.68,0.24,3.6,2.16,4.32c5.52,1.92,10.801,3.84,15.84,6.24
			c0.721,2.64,4.32,4.56,7.2,2.16c12.24-10.56,24.96-19.44,39.601-24c-12.48,9.36-23.281,23.04-29.521,35.52
			c-1.681,3.36,3.12,6.24,5.28,3.12c5.76-8.64,11.279-17.28,18.72-24.72c6-6.24,13.2-11.04,19.681-16.56
			c0.719,23.76-7.921,44.16-18,65.76c-20.881-8.16-55.921-24-71.521-3.12c-6.72-26.64-54.96-20.16-77.76-13.44
			C70.56,83.28,66.72,74.88,64.32,66z M68.4,101.76c27.36-2.4,60.24-18.24,78.72,10.32c0.72,1.2,2.4,1.44,3.36,0.72
			c0.48,0,0.72-0.24,0.959-0.48c21.84-17.52,49.201-3.6,72.48,4.8c1.92,5.52,3.359,11.52,4.08,17.28
			c-9.84,12.96-21.84,23.28-39.359,22.321c-19.201-1.201-26.881-15.121-36.48-29.041c-1.439-2.16-4.8-1.68-5.52,0.48
			c-14.16,8.16-24.48,19.68-41.52,23.52c-9.6,2.16-19.68,1.92-28.32-2.88c-7.68-4.32-10.8-10.8-15.12-17.52
			C61.92,121.68,63.84,111.6,68.4,101.76z M228.721,156.48c-5.281,49.68-69.841,57.6-108.721,47.039
			c-27.12-7.439-47.76-27.359-55.2-51.6c8.16,6.721,19.92,10.561,29.52,10.32c19.2-0.24,40.56-12,53.28-26.88
			c4.32,16.56,23.759,28.56,39.6,30.24c15.12,1.68,32.399-5.279,42-17.76C229.2,150.96,228.96,153.84,228.721,156.48z"/>
		<path d="M102.96,136.08c0.24-0.48,0.48-0.96,0.72-1.44c1.44-5.52-4.08-10.32-9.36-8.64c-5.52,1.68-7.44,8.4-3.6,12.72
			C94.32,142.8,101.52,141.6,102.96,136.08z"/>
		<path d="M198,143.76c2.641-0.479,4.8-2.64,5.76-5.04c1.2-2.88,1.2-6.96-1.92-8.64c-0.72-0.48-1.68-0.48-2.64-0.48
			c-4.32-1.92-9.841,0.72-10.56,5.76C187.92,140.64,192.96,144.96,198,143.76z"/>
		<path d="M159.12,169.2c-1.92,1.44-3.12,4.079-6,2.159c-1.681-0.959-2.64-2.879-3.6-4.56c0.96-0.479,1.919-0.96,2.88-1.92
			c1.439-1.68,1.92-3.84,0.72-5.76c-0.479-0.96-1.681-1.681-2.64-2.16c-2.88-2.64-7.68-3.12-11.04-2.16
			c-2.88,0.96-4.56,4.32-2.88,7.2c1.2,1.92,3.12,3.6,5.28,4.561c-0.96,1.92-1.92,3.6-4.56,4.319c-1.44,0.479-3.84,0.479-5.28-0.479
			c-1.2-0.721-1.2-2.4-2.4-3.601c-0.72-0.72-1.92-0.96-2.88-0.72c-0.24,0-0.24,0-0.48,0c-1.2,0.24-2.4,1.439-2.64,2.641
			c-1.2,7.92,7.68,11.039,14.16,9.119c2.64-0.72,5.28-2.64,7.44-5.04c1.44,2.88,4.08,5.28,7.2,6.24c2.879,0.96,5.76,0.479,8.16-1.2
			c2.399-1.68,4.08-5.279,2.399-7.92C162.24,168.96,160.32,168.24,159.12,169.2z"/>
	</g>
</g>
<g>
	<path fill="#212828" d="M251.195,29.448c-6.361-4.241-11.561-6.216-16.366-6.216c-4.765,0-9.012,2.057-12.622,6.119
		c-6.896,7.838-13.312,19.497-17.731,32.181c-5.33-2.673-10.765-4.75-16.464-6.289c0.49-0.11,0.987-0.219,1.492-0.329
		c3.54-0.771,7.202-1.57,10.376-3.384c1.652-0.944,2.682-2.948,2.622-5.107c-0.05-1.765-0.832-3.28-2.124-4.174
		c-0.603-1.764-1.796-2.803-3.622-3.169c-12.316-2.593-24.973-3.906-37.621-3.906c-20.742,0-40.613,3.434-59.092,10.212
		c-2.771-9.548-8.058-17.985-14.642-23.314c-4.071-3.368-8.286-5.006-12.884-5.006c-6.453,0-12.691,3.332-17.961,6.603
		C33.11,37.454-4.458,70.593,6.846,97.311c2.707,6.767,8.987,12.339,15.856,17.871c-17.8,39.325-13.958,83.342,10.108,115.109
		c25.211,33.947,67.378,52.645,118.735,52.645c0.001,0,0.001,0,0.002,0c10.774,0,21.738-0.861,32.583-2.553
		c29.249-4.598,51.879-14.428,67.263-29.223c17.93-17.32,26.276-44.112,23.495-75.476c-1.355-12.216-3.996-24.382-7.847-36.18
		c12.691-7.476,26.39-19.804,27.864-32.71C298.276,78.806,274.836,44.849,251.195,29.448z M232.89,128.847
		c-8.426-12.094,0.956-46.046,4.963-60.543c0.582-2.106,1.062-3.844,1.372-5.087c0.53-2.014,0.157-3.986-1.053-5.553
		c-1.315-1.708-3.519-2.768-5.746-2.768c-3.018,0-5.361,1.879-6.115,4.892c-0.422,1.622-1.003,3.691-1.681,6.108
		c-5.301,18.872-16.328,58.141-5.538,75.196c2.788,4.405,6.852,7.091,12.099,7.985c1.464,0.231,3.044,0.348,4.701,0.348
		c5.503,0,11.708-1.246,18.025-3.61c5.31,17.55,7.13,35.47,5.268,51.932c-5.564,52.359-58.76,71.019-106.686,71.021
		c-15.778,0-31.42-1.982-45.234-5.735c-32.575-8.884-59.009-30.416-72.524-59.077c-12.072-25.602-12.376-54.256-0.9-80.876
		c0.552,0.396,1.087,0.76,1.587,1.102c0.62,0.421,1.207,0.821,1.717,1.203l1.41,1.111c6.155,4.863,14.585,11.524,23.032,11.524
		c2.906,0,5.623-0.802,8.062-2.376c9.711-6.15,12.015-21.952,13.697-33.49c0.178-1.214,0.346-2.372,0.515-3.448
		c2.914-18.465,2.25-27.398-2.503-47.867c-0.626-2.82-2.754-4.57-5.553-4.57c-2.028,0-4.053,0.965-5.283,2.518
		c-1.129,1.426-1.512,3.222-1.089,5.02c4.789,23.203,4.338,34.786-0.882,54.13c-0.398,1.392-0.7,2.716-0.993,3.997
		c-1.285,5.623-2.113,8.334-6.892,8.553c-3.946,0.213-6.819-1.868-10.182-4.316c-1.03-0.749-2.094-1.524-3.137-2.189
		c-1.737-1.303-3.718-2.681-5.815-4.138c-6.079-4.226-12.97-9.016-16.628-13.895c-4.059-5.484-9.922-21.233,23.202-48.987
		l0.819-0.712c6.068-5.292,14.379-12.541,22.492-12.541c2.363,0,4.517,0.608,6.581,1.859c5.908,3.596,9.305,12.254,12.035,19.21
		c0.687,1.749,1.335,3.401,1.998,4.925c0.753,1.696,2.378,2.708,4.346,2.708c2.123,0,4.163-1.166,5.107-2.85
		c21.186-8.265,45.096-12.073,70.836-11.193c-2.612,1.318-5.041,2.933-6.768,5.066c-0.8,0.817-1.203,1.622-1.565,2.345l-0.096,0.246
		c-0.948,3.324,0.698,6.612,3.955,7.833c12.029,4.125,22.616,8.685,32.323,13.923l-0.02,0.207c-0.122,1.211,0.246,2.36,1.036,3.233
		c0.889,0.984,2.279,1.571,3.717,1.571c1.788,0,3.294-0.873,4-2.288c1.542-2.815,3.166-6.59,4.887-10.586
		c5.597-13,12.563-29.18,22.97-29.18c2.921,0,6.081,1.312,9.389,3.894c16.43,12.909,28.161,30.228,31.377,46.314
		c1.377,7.225,1.197,17.529-1.859,22.42c-1.487,2.478-6.395,5.276-9.641,7.127c-0.773,0.44-1.484,0.845-2.146,1.244
		c-0.695,0.464-1.452,0.98-2.258,1.529c-5.727,3.907-14.38,9.81-20.483,9.81c-0.263,0-0.521-0.011-0.784-0.035
		C237.104,132.764,234.661,131.393,232.89,128.847z"/>
	<path fill="#212828" d="M190.51,188.189c-2.741-3.354-5.858-6.089-9.265-8.133l-0.849-0.326c-0.652-0.234-1.323-0.477-2.169-0.539
		c-11.708-7.116-26.096-11.031-40.564-11.031c-13.581,0-26.014,3.42-35.951,9.887c-11.639,7.54-18.819,19.399-19.7,32.537
		c-0.896,13.391,4.745,26.345,15.487,35.553c10.432,8.776,25.623,13.609,42.777,13.609c0.001,0,0,0,0.002,0
		c15.518,0,31.072-4.049,42.693-11.122c7.721-4.901,13.127-13.367,15.22-23.839c2.43-12.16-0.044-25.473-6.457-34.852
		C191.597,189.063,191.1,188.473,190.51,188.189z M173.099,190.099c8.425,7.979,11.902,18.136,9.539,27.863
		c-2.411,9.935-10.453,17.78-21.515,20.985c-8.348,2.428-16.729,3.712-24.238,3.712c-14.255,0-25.001-4.4-31.956-13.092
		c-6.204-7.544-8.027-15.673-5.271-23.511c3.591-10.208,14.931-18.931,28.207-21.705c4.318-0.864,8.83-1.302,13.415-1.302
		c10.417,0,21.237,2.26,31.307,6.538L173.099,190.099z"/>
	<path fill="#212828" d="M118.99,206.989c-1.316,0-2.58,0.274-3.73,0.806c-2.887,1.264-4.809,3.912-5.139,7.082
		c-0.35,3.351,1.133,6.645,3.905,8.622c1.183,0.788,2.361,0.897,3.366,0.913c0.475,0.277,0.937,0.329,1.274,0.34
		c0.711,0.203,1.426,0.305,2.129,0.305c2.292,0,4.465-1.118,5.962-3.065c1.771-2.308,2.382-5.364,1.616-8.228
		C127.166,209.839,123.22,206.989,118.99,206.989z"/>
	<path fill="#212828" d="M151.25,216.026c1.129,4.248,4.812,6.983,9.421,6.983c0,0,0,0,0.001,0c2.875,0,5.719-1.11,7.84-3.079
		c2.354-2.354,3.368-5.618,2.788-8.951c-0.646-3.697-3.168-6.992-6.656-8.631c-3.791-1.518-7.866-0.764-10.875,1.879
		c-2.963,2.223-4.103,6.063-2.938,9.835C150.834,214.683,150.875,215.228,151.25,216.026z"/>
	<path fill="#212828" d="M77.853,163.126c-1.817-3.419-5.74-5.7-9.841-5.7c-0.316,0-0.631,0.014-0.925,0.041
		c-5.101,0.393-9.292,3.966-10.421,8.857c-0.927,3.575-0.189,7.16,2.078,10.09c2.358,3.047,6.002,4.866,9.748,4.867c0,0,0,0,0.001,0
		c2.208,0,4.373-0.65,6.337-1.936c4.76-3.57,6.321-9.32,3.938-14.39C78.667,164.062,78.213,163.5,77.853,163.126z"/>
	<path fill="#212828" d="M207.275,177.701c-0.355,2.851,0.552,5.895,2.629,8.801l0.149,0.177c0.112,0.114,0.218,0.291,0.331,0.462
		c0.205,0.309,0.418,0.626,0.688,0.896c2.228,2.229,5.255,3.456,8.521,3.456c1.488,0,2.989-0.249,4.559-0.776
		c5.036-2.099,8.646-7,8.98-12.195c0.277-4.305-1.824-8.077-5.687-10.303c-2.082-1.388-4.496-2.121-6.982-2.121
		C213.739,166.097,208.069,171.088,207.275,177.701z"/>
</g>
<g display="none">
	<g display="inline">
		<path d="M241.92,131.76C238.8,96.24,214.8,54.24,177.6,46.8c0.24,0,0.24,0,0.48-0.24c3.6-1.2,7.92-1.44,11.279-3.36
			c1.681-0.96,1.92-4.08,0-5.04c-0.239-0.96-0.719-1.68-1.92-1.92C148.8,27.36,105.6,37.2,78.96,68.16
			c-24.48,28.32-29.28,71.04-6.48,101.52c24.48,32.641,67.92,41.041,106.081,35.28c16.799-2.64,34.56-8.399,47.039-20.399
			C239.76,170.641,243.6,150.721,241.92,131.76z M232.8,147.36c-5.28,49.68-69.84,57.6-108.72,47.041
			C78.72,181.92,51.6,135.12,73.2,90.96c18.96-38.88,61.44-52.32,101.76-49.92c-3.12,1.2-6.479,2.64-8.399,5.04
			c-0.48,0.48-0.721,0.96-0.961,1.44l0,0c-0.479,1.68,0.24,3.6,2.16,4.32c20.4,6.96,38.16,16.08,50.16,34.56
			C229.2,103.92,234.96,126.72,232.8,147.36z"/>
		<path d="M166.8,145.44c-2.64,4.08-3.36,9.36-5.28,13.68c-2.16,5.04-4.56,9.84-7.92,14.399c-2.399,3.36-2.16,1.92-4.08-0.959
			c-1.44-2.16-2.64-4.32-4.08-6.721c-3.12-5.279-6.24-10.32-9.36-15.6c-1.44-2.16-5.28-0.72-4.32,1.92
			c3.12,7.92,6.96,15.359,11.04,22.8c2.4,4.319,5.52,10.08,11.28,7.681c4.8-1.921,8.4-9.601,10.561-13.921
			c3.359-6.239,8.159-14.64,7.68-21.84C172.32,144,168.48,142.8,166.8,145.44z"/>
		<path d="M110.64,117.12c-3.12,0-6,1.92-7.44,4.56c-1.44,3.12-0.72,6.72,1.92,9.12c1.92,1.68,4.56,2.16,6.96,1.68
			c1.68,0,3.36-0.48,4.56-1.68c2.16-1.92,2.88-5.52,1.68-8.16C117.12,119.52,114,117.12,110.64,117.12z"/>
		<path d="M192.96,115.44c-5.04-2.4-11.76,0.96-11.76,6.72c0,1.68,0.479,3.36,1.44,4.56c0,0.24,0,0.24,0.239,0.48
			c2.16,4.8,9.601,4.32,12.479,0.72C198.721,124.32,197.76,117.84,192.96,115.44z"/>
	</g>
</g>
<g display="none">
	<g display="inline">
		<path d="M260.4,172.8c-5.76-6-13.2-9.84-21.36-12c1.2-7.2,1.44-14.88,0.96-22.32c-0.96-10.56-3.6-21.6-8.16-32.16
			C246.721,86.64,250.561,60,250.561,36c0-2.4-1.92-4.32-4.32-4.32c-22.561,0-43.2,10.32-59.52,25.44
			c-3.601-1.44-7.201-2.64-11.041-3.36c0.24,0,0.24,0,0.48-0.24c3.6-1.2,7.92-1.44,11.279-3.36c1.681-0.96,1.92-4.08,0-5.04
			c-0.239-0.96-0.719-1.68-1.92-1.92c-21.119-4.8-43.68-4.08-64.08,2.64c-7.92-8.88-18-14.88-29.28-18.48
			c-7.68-2.64-26.64-8.64-34.32-3.84c-7.44,4.56-3.36,18.96-2.16,25.92c1.92,12.96,5.28,27.12,12,38.88
			c-13.92,24-16.32,53.76-3.36,78.48c-10.08,5.761-18.96,13.921-24.72,23.521c-1.68,2.64,2.16,5.52,4.32,3.359
			c7.92-8.16,15.84-14.88,24.48-20.16c0.72,1.201,1.44,2.16,2.16,3.36c2.64,3.601,5.52,6.72,8.64,9.841
			c-5.04,6.959-9.12,14.159-12.72,21.84c-1.44,3.359,3.12,6.239,5.04,2.879c3.84-7.199,8.16-13.68,12.96-19.92
			c24.96,20.4,60.24,25.44,92.161,20.641c16.799-2.641,34.56-8.4,47.039-20.4l0.24-0.24c0.48,0.48,1.2,0.961,1.68,1.201
			c9.121,7.439,16.561,16.319,24,25.439c1.92,2.16,5.28-0.721,3.84-2.881c-5.52-9.84-14.399-20.399-24.959-29.039
			c4.08-5.52,6.959-11.76,8.879-18.24c6.721,1.439,13.44,4.08,20.16,9.12C259.68,178.08,262.08,174.721,260.4,172.8z
			 M230.641,154.08c-0.24,1.68-0.48,3.12-0.721,4.8c-11.279-1.44-23.04-0.239-33.12,2.399c-2.399,0.721-1.92,4.08,0.479,4.32
			c10.801,0.48,20.881-0.479,30.48,0.24c-1.68,5.04-4.32,9.6-7.439,13.68c-8.16-5.52-17.041-9.359-25.44-10.799
			c-2.399-0.48-3.84,2.399-1.68,3.84c7.2,4.56,14.88,8.16,22.079,12.479c-22.56,21.36-65.04,23.76-93.599,15.84
			c-12.24-3.36-23.04-9.12-31.92-16.8c5.04-6,10.32-11.76,15.84-17.52c1.68-1.681-0.48-4.561-2.64-3.36
			C96,167.52,90,172.8,84.48,179.04c-3.12-3.36-6-6.72-8.64-10.56c6.24-3.121,12.72-6,20.16-8.4c1.92-0.721,1.68-4.08-0.48-3.84
			c-7.92,0.479-15.84,2.64-23.52,6C61.68,143.28,60,120,71.04,97.2c0.72-1.2,1.2-2.4,1.92-3.84c1.44-0.24,2.88-1.44,2.16-3.12
			c-2.64-9.12-6.72-18-9.12-27.12c-1.68-6.24-6.96-22.56-5.04-30c8.16,6,16.32,12,23.76,19.2c7.92,7.44,13.68,16.08,20.64,24.24
			c1.68,1.92,4.32-0.48,3.36-2.64c-7.92-17.28-24.24-34.08-41.04-44.16c7.92,0.72,21.36,6,24.72,7.44c9.6,4.08,17.76,10.08,24.72,18
			c2.88,3.12,6.48,0.96,7.44-2.16c15.36-4.8,31.92-6.48,48.24-5.52c-3.12,1.2-6.479,2.64-8.399,5.04
			c-0.48,0.48-0.721,0.96-0.961,1.44l0,0c-0.479,1.68,0.24,3.6,2.16,4.32c5.521,1.92,10.801,3.84,15.84,6.24
			c0.721,2.64,4.32,4.56,7.201,2.16C202.8,54.48,217.2,44.64,234.96,41.04c-5.761,4.08-11.04,9.12-15.36,13.44
			c-7.68,7.68-16.08,17.28-19.92,27.6c-0.96,2.64,2.881,4.8,4.801,2.88c7.199-7.92,12.479-17.52,20.16-25.2
			c5.279-5.52,11.76-9.84,17.76-14.64c-0.48,22.08-9.121,41.52-18.48,61.92c-0.721,1.44,0,3.12,1.2,3.84l-0.24,0.24
			C229.92,125.04,232.08,139.92,230.641,154.08z"/>
		<path d="M171.12,163.2c-1.2,2.64-1.681,5.521-3.841,7.68c-2.639,2.64-6.719,3.601-10.319,2.64c-5.04-1.439-6.72-5.279-8.64-8.879
			c3.6-1.92,7.2-5.761,6-9.361c-0.48-1.439-1.68-2.639-3.36-2.639c-3.36-0.24-4.08,2.879-6.48,4.319c-2.16,1.2-3.84-1.44-5.76-2.16
			c-1.44-0.479-2.88,0.72-2.88,2.16c0,3.12,2.16,6,4.8,7.44c-1.92,3.6-3.6,6.959-7.92,8.64c-5.04,1.92-14.64,0.239-14.64-6.72
			c0-2.641-3.6-2.881-4.56-0.721c-4.08,10.801,6.48,18.24,16.56,15.84c5.04-1.199,10.8-5.039,13.92-10.08
			c3.6,5.041,10.32,8.881,15.359,9.601c9.601,1.2,22.08-7.681,17.281-18.239C175.2,161.279,172.08,161.279,171.12,163.2z"/>
		<path d="M101.52,122.16c-1.44,0-3.12,0.48-4.08,1.68c-3.36,3.36-1.92,9.36,2.16,11.28c4.32,2.16,9.84-0.24,10.8-5.04
			c0.48-2.4-0.24-4.8-2.16-6.72C106.56,121.92,103.92,121.2,101.52,122.16z"/>
		<path d="M190.08,129.84c-0.96,0-1.68,0.24-2.4,0.96c-2.16-0.24-4.56,0.96-5.76,3.12c-1.68,2.64-1.199,6,0.48,8.4
			c1.92,2.4,4.8,3.12,7.92,2.64c6-1.2,8.16-8.88,3.84-13.2C193.2,130.56,191.76,129.84,190.08,129.84z"/>
	</g>
</g>
<g display="none">
	<g display="inline">
		<path d="M221.04,35.52c-6.479-4.32-13.44-6.72-19.2-0.24c-5.279,6-9.84,14.88-12.72,23.52c-5.04-2.64-10.32-4.56-16.08-5.76
			c0.239,0,0.239,0,0.479-0.24c3.601-1.2,7.92-1.44,11.28-3.36c1.681-0.96,1.921-4.08,0-5.04c-0.239-0.96-0.72-1.68-1.92-1.92
			c-22.8-4.8-47.28-3.36-68.88,4.8c-1.68-6.48-5.28-12.96-10.32-17.04c-6.96-5.76-13.68-3.12-20.64,1.2
			C69.6,40.08,41.76,63.6,49.68,82.32c1.92,4.8,6.72,8.88,11.52,12.72c-12,25.92-11.28,57.36,6.72,81.12
			C92.16,208.8,135.6,217.2,174,211.2c16.8-2.64,34.561-8.4,47.04-20.4c14.16-13.68,18-33.6,16.319-52.56
			c-0.959-8.64-2.879-17.52-5.76-26.16c10.08-5.76,18.961-14.4,19.92-22.8C253.92,69.36,236.88,45.84,221.04,35.52z M239.76,94.56
			c-1.439,2.4-6.24,4.8-8.64,6.24c-4.32,2.88-12,8.64-17.28,8.16c-17.04-1.44-3.84-42-1.68-50.64c1.199-4.56-6-6.72-7.2-1.92
			c-3.12,12-18.479,58.32,2.64,61.92c4.561,0.72,10.561-0.24,16.561-2.64c3.84,12.24,5.52,25.44,4.08,38.16
			c-5.28,49.68-69.84,57.6-108.72,47.04c-44.88-12.239-71.76-57.84-52.08-101.52c1.2,0.96,2.4,1.68,3.36,2.4
			c5.52,4.32,14.4,12,21.84,7.2c7.2-4.56,8.4-17.76,9.6-25.44c2.16-13.68,1.2-27.12-1.92-40.56c-0.96-4.32-7.44-2.4-6.48,1.68
			c3.12,15.12,3.6,30.72-0.48,45.84c-1.44,5.04-1.2,9.36-6.48,9.6c-4.08,0.24-6.72-2.64-10.08-4.8c-4.8-3.6-12.48-8.16-16.08-12.96
			c-8.88-12,7.68-28.56,16.56-36c5.52-4.8,14.4-12.96,22.32-8.16c5.52,3.36,7.92,12,10.32,17.52c0.96,2.16,4.32,1.44,5.04-0.48
			c17.04-6.72,36.24-9.12,55.2-7.92c-3.12,1.2-6.48,2.64-8.4,5.04c-0.48,0.48-0.72,0.96-0.96,1.44l0,0
			c-0.479,1.68,0.24,3.6,2.16,4.32c8.399,2.88,16.319,6.24,23.761,10.32c0,0.24,0,0.48-0.24,0.72c-0.24,2.4,3.359,3.12,4.319,1.2
			c5.521-10.08,12.479-37.68,27.841-25.68c10.08,7.92,19.92,20.16,22.56,33.36C242.16,83.04,242.16,90.72,239.76,94.56z"/>
		<path d="M183.12,163.2c-0.479,7.44-3.36,14.399-11.761,15.36c-7.68,0.959-11.76-3.84-14.639-9.84
			c4.559-0.48,9.6-1.921,11.279-5.761c0.721-1.44,1.2-3.601,0-5.04c-0.24-0.24-0.48-0.48-0.48-0.72
			c-1.439-1.921-3.84-2.64-5.76-1.681c-7.92-1.199-30.72-2.879-24.96,9.121c2.16,4.799,8.88,4.799,13.921,4.56
			c-1.201,6.72-6,11.76-13.441,12c-8.16,0.239-12.48-4.8-14.88-12c-0.48-1.44-2.4-1.681-3.12-0.479
			c-6.24,11.76,8.88,21.119,18.96,20.639c7.2-0.479,13.68-4.56,16.8-10.56c4.08,5.04,10.8,8.16,17.28,7.681
			c11.76-0.721,21.84-12.961,17.52-24.48C188.4,158.641,183.359,159.359,183.12,163.2z"/>
		<path d="M102.24,134.64c-3.12,1.68-4.8,5.28-4.08,8.88c0.72,3.84,4.56,6.48,8.4,6.24c1.68,0,3.36-0.72,4.56-1.92
			c0.72-0.48,1.44-1.2,1.92-2.16c1.92-3.12,1.2-6.96-1.2-9.6C109.44,133.68,105.6,132.72,102.24,134.64z"/>
		<path d="M190.32,137.04c0,0.24-0.24,0.48-0.24,0.48c-1.92,2.64-2.16,6.72,0.48,9.36c4.08,4.08,11.52,1.92,12.479-3.84
			c0.479-3.12-0.72-6.48-3.84-7.92C196.32,133.68,192,133.92,190.32,137.04z"/>
	</g>
</g>
<g display="none">
	<g display="inline">
		<path d="M241.92,134.16c-1.199-12.96-5.04-26.64-11.279-39.36C241.92,83.52,246,60.24,233.52,49.44
			c-11.52-10.08-30.479-5.76-38.879,6.24c-5.281-2.88-11.041-5.04-17.041-6.24c0.24,0,0.24,0,0.48-0.24
			c3.6-1.2,7.92-1.44,11.279-3.36c1.681-0.96,1.92-4.08,0-5.04c-0.239-0.96-0.719-1.68-1.92-1.92
			c-23.279-5.28-48.239-3.84-70.319,5.04c-9.36-15.12-32.64-17.28-46.32-5.76C60,47.28,59.04,72.24,72,79.92
			c-18,27.84-19.92,65.04,0.48,92.4c24.48,32.64,67.92,41.039,106.081,35.039c16.799-2.639,34.56-8.399,47.039-20.399
			C239.76,173.279,243.6,153.359,241.92,134.16z M232.8,150c-5.28,49.68-69.84,57.6-108.72,47.04
			C78.72,184.561,51.6,137.76,73.2,93.6c2.16-4.56,4.8-8.88,7.68-12.96l0,0c0.96-1.2,1.2-2.64-0.24-3.6
			c-5.52-4.32-9.84-12-10.08-19.44c1.44-4.8,6-8.16,11.28-7.44c6.24,0.96,11.04,6,12.24,12.24c0.96,4.56,8.4,2.16,6.48-2.64
			c-3.84-9.12-11.04-17.28-22.08-15.84l0,0l0,0c12.48-6.48,25.68-1.68,34.32,8.4c1.44,1.92,4.08,1.44,5.76,0
			c17.52-7.2,37.2-9.6,56.64-8.4c-3.12,1.2-6.479,2.64-8.4,5.04c-0.479,0.48-0.72,0.96-0.96,1.44l0,0c-0.48,1.68,0.24,3.6,2.16,4.32
			c8.641,2.88,16.561,6.24,24,10.32c1.2,1.92,3.84,2.64,5.76,0.96c7.44-7.44,18-18.72,28.801-9.84c-1.44-0.24-2.641-0.24-3.84,0
			c-8.16,1.2-14.4,7.92-17.521,15.12c-1.921,4.32,4.319,8.4,6.479,3.84s4.561-9.36,9.36-11.52c4.56-1.92,7.44-0.48,10.56,1.44
			c1.68,9.12-4.56,20.4-10.32,26.4c-2.399,2.4-0.719,6.24,1.921,7.2C230.88,114.48,234.48,132.72,232.8,150z"/>
		<path d="M184.561,157.2c-0.961-2.16-3.84-1.921-5.521-0.72c-4.319,3.84-5.04,10.08-12.24,9.84c-6-0.24-7.44-4.32-9.12-8.4
			c0-0.48,0-0.96-0.24-1.439c1.92-1.44,3.601-3.601,5.041-5.521c2.879-3.84,4.56-8.16,6.479-12.48c1.681-4.08-5.28-7.2-7.44-3.12
			c-1.199,2.64-2.879,5.04-4.56,7.44c-0.96,1.2-1.681,2.64-2.64,3.84c-0.24,0.48-0.721,0.72-0.961,1.2
			c-1.68-1.2-4.08-2.16-5.759-3.36c-2.64-1.92-5.28-4.08-8.16-5.52c-2.64-1.44-5.76,1.44-4.32,4.32c2.16,3.84,5.52,6.72,8.88,9.121
			c1.92,1.439,4.08,3.359,6.48,4.56c-0.24,0.479-0.24,0.96-0.24,1.44c-2.16,5.52-4.8,11.039-11.52,12
			c-8.16,1.439-10.32-4.32-13.2-10.32c-0.72-1.439-3.36-1.68-4.08,0c-4.08,9.6,7.2,18,15.84,18c1.44,0,2.88-0.24,4.32-0.721
			c0.48,1.44,0.96,2.881,1.44,4.32c0.96,2.4,1.68,6.961,3.36,8.881c1.68,1.92,4.08,1.68,6.241,1.439c3.119-0.24,6.479-0.48,9.6-0.48
			c2.4,0,4.32-1.92,4.32-4.319c0.239-3.841,0.959-7.921,1.199-11.761C176.88,175.2,188.88,166.8,184.561,157.2z M150.96,183.6
			c-0.96-3.119-1.92-6.24-3.6-8.879c2.64-1.681,4.8-3.841,6.48-6.24c1.92,1.92,4.08,3.84,6.48,5.039
			c-0.721,3.121-1.2,6.24-1.68,9.36C156.24,182.641,153.6,182.88,150.96,183.6z"/>
		<path d="M108.48,122.16c-7.92-2.16-15.36,6-11.52,13.44c1.2,2.16,3.12,3.84,5.52,4.56c2.88,1.44,6.24,1.44,9.36-0.48
			C118.32,134.88,116.16,124.08,108.48,122.16z"/>
		<path d="M197.52,120.24c-5.52-1.68-11.52,2.16-10.56,7.92c-0.239,0.96-0.479,1.92-0.479,2.88c0,4.8,4.319,8.64,8.879,8.88
			c4.32,0,8.16-3.12,9.361-7.2C206.16,127.44,202.561,121.92,197.52,120.24z"/>
	</g>
</g>
<g display="none">
	<g display="inline">
		<path d="M241.92,134.16c-1.199-12.96-5.04-26.64-11.279-39.36C241.92,83.52,246,60.24,233.52,49.44
			c-11.52-10.08-30.479-5.76-38.879,6.24c-5.281-2.88-11.041-5.04-17.041-6.24c0.24,0,0.24,0,0.48-0.24
			c3.6-1.2,7.92-1.44,11.279-3.36c1.681-0.96,1.92-4.08,0-5.04c-0.239-0.96-0.719-1.68-1.92-1.92
			c-23.279-5.28-48.239-3.84-70.319,5.04c-9.36-15.12-32.64-17.28-46.32-5.76C60,47.28,59.04,72.24,72,79.92
			c-18,27.84-19.92,65.04,0.48,92.4c24.48,32.64,67.92,41.039,106.081,35.039c16.799-2.639,34.56-8.399,47.039-20.399
			C239.76,173.279,243.6,153.359,241.92,134.16z M232.8,150c-5.28,49.68-69.84,57.6-108.72,47.04
			C78.72,184.561,51.6,137.76,73.2,93.6c2.16-4.56,4.8-8.88,7.68-12.96l0,0c0.96-1.2,1.2-2.64-0.24-3.6
			c-5.52-4.32-9.84-12-10.08-19.44c1.44-4.8,6-8.16,11.28-7.44c6.24,0.96,11.04,6,12.24,12.24c0.96,4.56,8.4,2.16,6.48-2.64
			c-3.84-9.12-11.04-17.28-22.08-15.84l0,0l0,0c12.48-6.48,25.68-1.68,34.32,8.4c1.44,1.92,4.08,1.44,5.76,0
			c17.52-7.2,37.2-9.6,56.64-8.4c-3.12,1.2-6.479,2.64-8.4,5.04c-0.479,0.48-0.72,0.96-0.96,1.44l0,0c-0.48,1.68,0.24,3.6,2.16,4.32
			c8.641,2.88,16.561,6.24,24,10.32c1.2,1.92,3.84,2.64,5.76,0.96c7.44-7.44,18-18.72,28.801-9.84c-1.44-0.24-2.641-0.24-3.84,0
			c-8.16,1.2-14.4,7.92-17.521,15.12c-1.921,4.32,4.319,8.4,6.479,3.84s4.561-9.36,9.36-11.52c4.56-1.92,7.44-0.48,10.56,1.44
			c1.68,9.12-4.56,20.4-10.32,26.4c-2.399,2.4-0.719,6.24,1.921,7.2C230.88,114.48,234.48,132.72,232.8,150z"/>
		<path d="M174.24,148.8c-1.44,2.16-1.44,4.56-2.4,6.96c-1.199,2.641-3.359,5.04-6.48,5.76c-2.639,0.721-5.52,0.24-7.439-1.92
			c-1.68-1.68-1.92-4.08-2.16-6.24c5.52-2.159,11.52-7.679,12-12.719c0.721-7.44-10.32-8.4-15.359-8.88
			c-5.28-0.479-17.28-0.24-16.561,7.92c-0.24,0.48-0.24,1.2,0.24,1.92c3.36,4.32,6,10.08,11.04,12c-2.16,5.28-5.76,9.601-12.24,8.16
			c-6.48-1.199-8.4-6.479-11.52-11.28c-1.44-2.16-4.56-1.2-4.8,1.2c-0.96,10.08,9.84,18.961,19.44,18.961
			c5.28,0,10.32-2.881,13.2-6.961c3.36,4.08,8.399,6.721,13.2,6.721c5.039-0.24,10.08-2.881,12.959-6.961
			c2.881-3.84,5.521-10.319,2.4-14.399C178.32,146.88,175.68,146.88,174.24,148.8z M148.8,146.4c-2.4-0.72-4.56-3.12-6.72-5.28
			c2.4-2.4,12.24-2.16,16.8-0.48c-0.72,1.2-2.159,2.16-2.88,2.88C153.84,145.68,152.16,147.6,148.8,146.4z"/>
		<path d="M137.04,113.04c6.24-14.16,5.52-35.28-13.44-37.2c-1.2,0-1.92,0.24-2.4,0.72C104.88,76.8,90,87.84,83.28,102.72
			c-6.24,13.68-5.76,36,13.44,38.16C113.76,142.8,130.56,127.68,137.04,113.04z M91.44,129.84c-9.6-8.88-0.72-26.64,6.48-34.32
			c6.96-7.44,15.84-10.56,25.44-12.96c0.24,0,0.24,0,0.48,0c12.72,1.44,8.88,17.28,6.24,23.76c-1.92,5.04-5.04,9.84-8.64,13.92
			C114.96,126.96,100.32,138,91.44,129.84z"/>
		<path d="M205.68,98.16c-8.88-10.8-24.479-20.4-37.439-10.08c-13.68,10.8-8.641,30.96,1.439,42.24
			c8.881,9.84,29.28,20.64,41.76,11.04c12.961-10.08,5.281-31.68-2.64-42C207.84,98.4,206.641,97.92,205.68,98.16z M208.561,132.24
			c-6.961,10.32-24.961-0.24-30.721-6c-7.199-7.2-12.96-19.68-6.72-29.28c9.12-13.44,23.28-1.44,32.399,5.52
			C208.8,110.16,214.32,123.36,208.561,132.24z"/>
		<path d="M115.2,111.84c-1.2-1.92-3.6-3.36-5.76-3.12c-2.88,0.24-5.76,2.4-6.48,5.28c-0.72,3.12,0.72,6.24,3.6,7.92
			c2.64,1.44,6.48,1.2,8.4-1.2C117.12,118.56,117.84,114.24,115.2,111.84C115.2,112.08,115.2,111.84,115.2,111.84z"/>
		<path d="M199.439,119.76L199.439,119.76c-0.239-0.48-0.239-0.72-0.479-0.96l0,0c-0.239-0.24-0.239-0.48-0.479-0.96l0,0
			c-2.16-2.64-6.24-3.6-9.121-0.96c-1.92,1.92-2.639,5.04-1.199,7.44c1.199,2.16,3.359,3.36,5.76,3.36c2.88,0,5.04-2.16,5.76-4.56
			c0.24-0.96,0.24-1.92,0-2.88C199.439,120,199.439,120,199.439,119.76z"/>
	</g>
</g>
<g display="none">
	<g display="inline">
		<path d="M228.48,40.8c-15.36-6-36.961,1.92-40.801,17.76c-4.32-1.92-8.88-3.6-13.68-4.56c0.24,0,0.24,0,0.48-0.24
			c3.6-1.2,7.92-1.44,11.279-3.36c1.68-0.96,1.92-4.08,0-5.04c-0.24-0.96-0.72-1.68-1.92-1.92c-19.199-4.32-39.6-4.08-58.56,1.2
			c-1.68-7.2-8.16-13.44-14.88-16.32c-10.8-4.8-23.52-2.4-33.6,2.88C52.56,43.68,39.12,72.24,43.2,98.4
			c1.44,8.88,5.52,17.04,11.52,23.28c-2.4,19.2,1.92,39.12,14.16,55.679C93.36,210,136.56,218.4,174.96,212.4
			c16.8-2.641,34.56-8.4,47.04-20.4c14.16-13.68,18-33.6,16.32-52.56c-0.24-2.4-0.48-5.04-0.961-7.68
			c10.32-6.72,18.24-20.16,19.681-30.96C259.92,78,251.04,49.68,228.48,40.8z M249.359,98.88c-0.959,9.12-3.84,17.76-11.76,23.28
			c-9.84,6.96-24.24,8.16-27.119-7.2c-2.641-13.2,0.479-27.36,6.24-39.6c2.399,7.2,5.52,13.92,10.319,20.16
			c2.16,3.12,6.72-0.24,4.08-3.12c-6.479-7.68-10.32-15.84-10.32-25.92c0-3.36-4.56-4.56-6.239-1.68
			c-8.881,15.36-23.281,54.96-3.121,67.44c5.761,3.6,11.761,4.32,17.041,2.88c0.72,6.48,0.959,13.2,0.24,19.44
			C223.439,204.24,158.88,212.16,120,201.6c-35.28-9.6-59.52-40.319-58.08-74.16c10.08,6.48,22.8,7.44,34.8-1.44
			c21.36-15.84,19.44-49.2,2.4-67.2c-1.44-1.44-4.32-0.72-4.8,1.2C91.2,72.48,80.16,78.48,68.16,78.48c-4.56,0-4.56,6.72,0,6.96
			c13.92,0.72,24.72-7.68,30-19.68c11.52,13.92,8.88,38.4-4.56,50.64c-21.36,18.96-41.28-6.48-41.28-27.6
			c0-15.84,6.96-31.68,18.48-42.24c6.96-6.48,16.56-11.28,26.16-11.76c13.68-0.48,18.72,6.96,23.28,18.24
			c0.96,2.16,3.6,2.16,4.32,0.24c14.88-4.56,30.959-6,46.56-5.04c-3.12,1.2-6.479,2.64-8.4,5.04c-0.479,0.479-0.72,0.96-0.96,1.44
			l0,0c-0.48,1.68,0.24,3.6,2.16,4.32c8.641,2.88,16.561,6.24,24,10.32c0,0.24,0,0.48,0.24,0.48c0.96,2.88,5.04,2.16,5.04-0.72
			c1.44-20.16,21.12-27.84,37.68-17.28C245.04,61.92,251.04,82.56,249.359,98.88z"/>
		<path d="M159.12,169.439c-0.96-0.959-1.681-1.92-2.399-3.119c0.239-0.24,0.479-0.48,0.719-0.721
			c2.16-2.399,4.801-5.76,5.521-8.879c0.72-3.121-2.64-6.48-5.76-4.32c-1.681,1.199-2.64,2.399-3.841,4.08
			c-0.479,0.72-0.959,1.439-1.439,2.16c-0.72-0.961-1.92-2.16-2.16-2.4c-1.2-1.68-2.4-3.12-4.08-4.561c-1.92-1.68-5.04,0-4.32,2.4
			c0.72,3.12,2.4,5.76,3.84,8.641c0.72,1.199,1.44,2.639,2.4,3.6c-0.96,1.68-1.92,3.119-3.36,4.32
			c-3.12,2.159-7.44,1.199-10.08,3.84c-1.2,1.199-1.68,3.119-0.48,4.56c3.84,5.28,12,2.16,16.08-1.2c0.72-0.72,1.68-1.68,2.4-2.64
			l0.24,0.239c2.64,3.121,8.399,6.961,12.959,5.281c2.4-0.961,4.561-4.801,1.92-6.961C164.641,171.84,161.52,171.6,159.12,169.439z"
			/>
		<path d="M112.8,138.72c-1.44-0.96-3.12-0.96-4.8-0.48c-5.04,0-9.12,5.04-7.44,10.08c1.92,5.76,9.36,7.68,13.68,3.12
			c2.16-2.16,2.88-5.52,1.68-8.399C115.44,141.12,114.24,139.68,112.8,138.72z"/>
		<path d="M193.439,143.04c-6-2.88-12.959,2.88-11.76,9.36c1.2,5.76,8.16,8.399,13.2,5.52c2.64-1.439,4.32-4.8,4.08-7.92
			c0-1.92-0.72-3.84-1.92-5.28C196.08,143.76,194.88,143.28,193.439,143.04z"/>
	</g>
</g>
</svg>
