<?xml version="1.0" encoding="utf-8"?>
<!-- Generator: Adobe Illustrator 16.0.0, SVG Export Plug-In . SVG Version: 6.00 Build 0)  -->
<!DOCTYPE svg PUBLIC "-//W3C//DTD SVG 1.1//EN" "http://www.w3.org/Graphics/SVG/1.1/DTD/svg11.dtd">
<svg version="1.1" id="Ebene_1" xmlns="http://www.w3.org/2000/svg" xmlns:xlink="http://www.w3.org/1999/xlink" x="0px" y="0px"
	 width="300px" height="300px" viewBox="330.75 -0.75 300 300" enable-background="new 330.75 -0.75 300 300" xml:space="preserve">
<g>
	<path fill="#F4ACB7" d="M581.945,28.698c-6.361-4.241-11.561-6.216-16.366-6.216c-4.765,0-9.012,2.057-12.622,6.119
		c-6.896,7.838-13.312,19.497-17.731,32.181c-5.33-2.673-10.765-4.75-16.464-6.289c0.49-0.11,0.987-0.219,1.492-0.329
		c3.54-0.771,7.202-1.57,10.376-3.384c1.652-0.944,2.682-2.948,2.622-5.107c-0.05-1.765-0.832-3.28-2.124-4.174
		c-0.603-1.764-1.796-2.803-3.622-3.169c-12.316-2.593-24.973-3.906-37.621-3.906c-20.742,0-40.613,3.434-59.092,10.212
		c-2.771-9.548-8.059-17.985-14.643-23.314c-4.07-3.368-8.285-5.006-12.884-5.006c-6.452,0-12.691,3.332-17.961,6.603
		c-21.446,13.787-59.015,46.926-47.71,73.644c2.707,6.767,8.987,12.339,15.855,17.871c-17.799,39.325-13.957,83.342,10.108,115.109
		c25.212,33.947,67.378,52.645,118.735,52.645c0.001,0,0.001,0,0.002,0c10.774,0,21.738-0.861,32.583-2.553
		c29.249-4.598,51.879-14.428,67.263-29.223c17.93-17.32,26.276-44.112,23.495-75.476c-1.355-12.216-3.996-24.382-7.847-36.18
		c12.691-7.476,26.39-19.804,27.864-32.71C629.026,78.056,605.586,44.099,581.945,28.698z M563.64,128.097
		c-8.426-12.094,0.956-46.046,4.963-60.543c0.582-2.106,1.062-3.844,1.372-5.087c0.53-2.014,0.157-3.986-1.053-5.553
		c-1.315-1.708-3.519-2.768-5.746-2.768c-3.018,0-5.361,1.879-6.115,4.892c-0.422,1.622-1.003,3.691-1.681,6.108
		c-5.301,18.872-16.328,58.141-5.538,75.196c2.788,4.405,6.852,7.091,12.099,7.985c1.464,0.231,3.044,0.348,4.701,0.348
		c5.503,0,11.708-1.246,18.025-3.61c5.31,17.55,7.13,35.47,5.268,51.932c-5.564,52.359-58.76,71.019-106.686,71.021
		c-15.778,0-31.42-1.982-45.234-5.735c-32.575-8.884-59.009-30.416-72.524-59.077c-12.072-25.602-12.376-54.256-0.9-80.876
		c0.553,0.396,1.088,0.76,1.588,1.102c0.619,0.421,1.207,0.821,1.717,1.203l1.41,1.111c6.155,4.863,14.586,11.524,23.031,11.524
		c2.906,0,5.623-0.802,8.062-2.376c9.711-6.15,12.016-21.952,13.697-33.49c0.178-1.214,0.346-2.372,0.515-3.448
		c2.914-18.465,2.249-27.398-2.503-47.867c-0.626-2.82-2.754-4.57-5.553-4.57c-2.028,0-4.053,0.965-5.283,2.518
		c-1.129,1.426-1.512,3.222-1.09,5.02c4.789,23.203,4.339,34.786-0.881,54.13c-0.398,1.392-0.701,2.716-0.993,3.997
		c-1.285,5.623-2.113,8.334-6.892,8.553c-3.947,0.213-6.819-1.868-10.183-4.316c-1.03-0.749-2.094-1.524-3.137-2.189
		c-1.737-1.303-3.718-2.681-5.815-4.138c-6.079-4.226-12.97-9.016-16.629-13.895c-4.059-5.484-9.922-21.233,23.202-48.987
		l0.819-0.712c6.068-5.292,14.379-12.541,22.492-12.541c2.363,0,4.516,0.608,6.58,1.859c5.908,3.596,9.305,12.254,12.035,19.21
		c0.687,1.749,1.335,3.401,1.998,4.925c0.753,1.696,2.377,2.708,4.346,2.708c2.122,0,4.162-1.166,5.107-2.85
		c21.186-8.265,45.096-12.073,70.836-11.193c-2.612,1.318-5.041,2.933-6.768,5.066c-0.8,0.817-1.203,1.622-1.565,2.345l-0.096,0.246
		c-0.948,3.324,0.698,6.612,3.955,7.833c12.029,4.125,22.616,8.685,32.323,13.923l-0.02,0.207c-0.122,1.211,0.246,2.36,1.036,3.233
		c0.889,0.984,2.279,1.571,3.717,1.571c1.788,0,3.294-0.873,4-2.288c1.542-2.815,3.166-6.59,4.887-10.586
		c5.597-13,12.563-29.18,22.97-29.18c2.921,0,6.081,1.312,9.389,3.894c16.43,12.909,28.161,30.228,31.377,46.314
		c1.377,7.225,1.197,17.529-1.859,22.42c-1.487,2.478-6.395,5.276-9.641,7.127c-0.773,0.44-1.484,0.845-2.146,1.244
		c-0.695,0.464-1.452,0.98-2.258,1.529c-5.727,3.907-14.38,9.81-20.483,9.81c-0.263,0-0.521-0.011-0.784-0.035
		C567.854,132.014,565.411,130.643,563.64,128.097z"/>
	<path fill="#F4ACB7" d="M521.26,187.439c-2.741-3.354-5.858-6.089-9.265-8.133l-0.849-0.326c-0.652-0.234-1.323-0.477-2.169-0.539
		c-11.708-7.116-26.096-11.031-40.564-11.031c-13.581,0-26.014,3.42-35.95,9.887c-11.64,7.54-18.82,19.399-19.7,32.537
		c-0.896,13.391,4.745,26.345,15.487,35.553c10.432,8.776,25.623,13.609,42.777,13.609c0.002,0,0,0,0.002,0
		c15.519,0,31.072-4.049,42.693-11.122c7.721-4.901,13.127-13.367,15.22-23.839c2.43-12.16-0.044-25.473-6.457-34.852
		C522.347,188.313,521.85,187.723,521.26,187.439z M503.849,189.349c8.425,7.979,11.902,18.136,9.539,27.863
		c-2.411,9.935-10.453,17.78-21.515,20.985c-8.348,2.428-16.729,3.712-24.238,3.712c-14.254,0-25.001-4.4-31.955-13.092
		c-6.204-7.544-8.027-15.673-5.271-23.511c3.591-10.208,14.931-18.931,28.207-21.705c4.317-0.864,8.83-1.302,13.415-1.302
		c10.417,0,21.236,2.26,31.307,6.538L503.849,189.349z"/>
	<path fill="#F4ACB7" d="M449.74,206.239c-1.316,0-2.58,0.274-3.73,0.806c-2.888,1.264-4.81,3.912-5.14,7.082
		c-0.35,3.351,1.133,6.645,3.905,8.622c1.184,0.788,2.361,0.897,3.366,0.913c0.476,0.277,0.937,0.329,1.274,0.34
		c0.711,0.203,1.426,0.305,2.129,0.305c2.292,0,4.465-1.118,5.963-3.065c1.771-2.308,2.382-5.364,1.616-8.228
		C457.916,209.089,453.97,206.239,449.74,206.239z"/>
	<path fill="#F4ACB7" d="M482,215.276c1.129,4.248,4.812,6.983,9.421,6.983c0,0,0,0,0.001,0c2.875,0,5.719-1.11,7.84-3.079
		c2.354-2.354,3.368-5.618,2.788-8.951c-0.646-3.697-3.168-6.992-6.656-8.631c-3.791-1.518-7.866-0.764-10.875,1.879
		c-2.963,2.223-4.103,6.063-2.938,9.835C481.584,213.933,481.625,214.478,482,215.276z"/>
	<path fill="#F4ACB7" d="M408.604,162.376c-1.817-3.419-5.74-5.7-9.842-5.7c-0.315,0-0.631,0.014-0.925,0.041
		c-5.101,0.393-9.292,3.966-10.421,8.857c-0.928,3.575-0.189,7.16,2.078,10.09c2.357,3.047,6.002,4.866,9.748,4.867l0,0
		c2.208,0,4.373-0.65,6.338-1.936c4.76-3.57,6.32-9.32,3.938-14.39C409.418,163.312,408.963,162.75,408.604,162.376z"/>
	<path fill="#F4ACB7" d="M538.025,176.951c-0.355,2.851,0.552,5.895,2.629,8.801l0.149,0.177c0.112,0.114,0.218,0.291,0.331,0.462
		c0.205,0.309,0.418,0.626,0.688,0.896c2.228,2.229,5.255,3.456,8.521,3.456c1.488,0,2.989-0.249,4.559-0.776
		c5.036-2.099,8.646-7,8.98-12.195c0.277-4.305-1.824-8.077-5.687-10.303c-2.082-1.388-4.496-2.121-6.982-2.121
		C544.489,165.347,538.819,170.338,538.025,176.951z"/>
</g>
</svg>
