<?xml version="1.0" encoding="utf-8"?>
<!-- Generator: Adobe Illustrator 16.0.0, SVG Export Plug-In . SVG Version: 6.00 Build 0)  -->
<!DOCTYPE svg PUBLIC "-//W3C//DTD SVG 1.1//EN" "http://www.w3.org/Graphics/SVG/1.1/DTD/svg11.dtd">
<svg version="1.1" id="Ebene_1" xmlns="http://www.w3.org/2000/svg" xmlns:xlink="http://www.w3.org/1999/xlink" x="0px" y="0px"
	 width="300px" height="300.003px" viewBox="0 0 300 300.003" enable-background="new 0 0 300 300.003" xml:space="preserve">
<path fill="#FCF7F2" stroke="#212828" stroke-width="9" stroke-miterlimit="10" d="M289.56,277.694c0,6.627-5.373,12-12,12H22.179
	c-6.628,0-12-5.373-12-12V22.31c0-6.627,5.372-12,12-12H277.56c6.627,0,12,5.373,12,12V277.694z"/>
<g display="none">
	<path display="inline" fill="#FFCAD4" d="M122.175,122.763c-2.375,0-4.308,1.932-4.308,4.308s1.933,4.308,4.308,4.308
		s4.309-1.932,4.309-4.308S124.55,122.763,122.175,122.763z M122.175,127.471c-0.221,0-0.4-0.18-0.4-0.4s0.18-0.4,0.4-0.4
		s0.4,0.179,0.4,0.4S122.396,127.471,122.175,127.471z"/>
	<path display="inline" fill="#FFCAD4" d="M176.368,122.763c-2.375,0-4.307,1.932-4.307,4.308s1.932,4.308,4.307,4.308
		c2.376,0,4.309-1.932,4.309-4.308S178.744,122.763,176.368,122.763z M176.368,127.471c-0.221,0-0.4-0.18-0.4-0.4s0.18-0.4,0.4-0.4
		s0.4,0.179,0.4,0.4S176.589,127.471,176.368,127.471z"/>
	<path display="inline" fill="#FFCAD4" d="M138.554,153.474c-3.146,0-4.742,3.074-4.742,9.136c0,6.062,1.596,9.136,4.742,9.136
		c3.146,0,4.741-3.073,4.741-9.136C143.295,156.548,141.7,153.474,138.554,153.474z"/>
	<path display="inline" fill="#FFCAD4" d="M157.198,171.747c3.147,0,4.742-3.074,4.742-9.137c0-6.062-1.596-9.135-4.742-9.135
		s-4.741,3.073-4.741,9.135C152.457,168.672,154.052,171.747,157.198,171.747z"/>
	<path display="inline" fill="#FFCAD4" d="M231.224,65.917c-0.163-1.399-1.175-2.553-2.54-2.899
		c-20.737-5.269-36.544,7.313-41.878,12.371c-11.199-8.111-24.08-12.477-37.287-12.477c-13.053,0-25.788,4.26-36.895,12.188
		c-5.612-5.229-21.217-17.254-41.571-12.083c-1.366,0.347-2.376,1.5-2.54,2.899c-0.036,0.311-0.866,7.719,1.382,16.485
		c2.729,10.64,8.827,18.711,17.712,23.559c-3.231,7.546-4.959,15.407-4.959,23.084c0,10.82,3.514,20.95,9.613,29.595
		c-3.721,6.495-14.175,27.416-7.869,47.916c4.215,13.699,15.006,24.273,32.072,31.429c0.416,0.174,0.863,0.264,1.314,0.264h29.543
		c0.021,0,0.04-0.002,0.061-0.003h20.877c0.02,0,0.039,0.004,0.059,0.004c0.017,0,0.033-0.003,0.051-0.004h8.493
		c0.451,0,0.897-0.09,1.313-0.265c16.367-6.861,26.977-16.886,31.533-29.796c6.406-18.146-0.977-37.098-5.523-46.151
		c7.685-9.336,12.205-20.718,12.205-32.989c0-7.574-1.684-15.326-4.83-22.778c9.195-4.81,15.495-12.999,18.282-23.865
		C232.09,73.636,231.261,66.229,231.224,65.917z M76.534,80.917c-1.264-4.823-1.436-9.241-1.391-11.83
		c14.998-2.653,27.003,5.889,32.045,10.302c-1.719,1.493-3.389,3.081-5.004,4.762c-2.758,2.872-5.252,5.913-7.467,9.077
		c-6.107-2.802-10.139-13.843-11.27-18.357c-0.314-1.261-1.592-2.029-2.854-1.714c-1.262,0.314-2.029,1.592-1.715,2.854
		c0.189,0.76,4.188,16.363,13.248,21.18c-0.535,0.88-1.049,1.768-1.541,2.662C83.527,95.92,78.803,89.568,76.534,80.917z
		 M203.296,205.922c-3.572,10.123-11.74,18.266-24.297,24.243c6.32-6.674,13.586-17.622,12.974-32.317
		c-0.077-1.877-1.661-3.332-3.538-3.257c-1.877,0.078-3.334,1.663-3.256,3.539c0.778,18.714-14.324,30.729-17.92,33.315h-7.475
		v-8.071c0-1.3-1.054-2.354-2.354-2.354c-1.3,0-2.354,1.054-2.354,2.354v8.071h-4.354v-19.499
		c12.211-1.269,19.312-8.991,19.633-9.349c1.252-1.391,1.139-3.526-0.246-4.785c-1.384-1.259-3.531-1.156-4.797,0.223
		c-0.273,0.298-6.82,7.291-17.99,7.291c-10.977,0-16.602-6.79-16.865-7.116c-1.161-1.464-3.289-1.718-4.763-0.562
		c-1.478,1.158-1.736,3.296-0.577,4.773c0.285,0.363,6.607,8.235,18.805,9.523v19.504h-4.357v-8.075c0-1.3-1.055-2.354-2.354-2.354
		c-1.301,0-2.354,1.054-2.354,2.354v8.075h-7.47c-3.589-2.581-18.703-14.599-17.924-33.318c0.078-1.876-1.38-3.461-3.256-3.539
		c-1.869-0.076-3.461,1.379-3.539,3.256c-0.612,14.702,6.658,25.652,12.979,32.325c-13.106-6.237-21.425-14.831-24.744-25.581
		c-4.878-15.801,2.12-32.649,5.996-40.197c12.162,13.285,31.007,21.865,52.151,21.99c0.096,0.001,0.191,0.006,0.286,0.006
		c0.023,0,0.046-0.002,0.069-0.002c0.037,0,0.076,0.002,0.113,0.002c19.705,0,37.445-7.349,49.693-19.016
		C203.259,176.133,208.38,191.521,203.296,205.922z M121.181,160.165c0-10.712,12.631-19.426,28.155-19.426
		s28.155,8.715,28.155,19.426c0,10.695-12.593,19.398-28.086,19.424c-0.119,0-0.236-0.003-0.354-0.004
		C133.657,179.478,121.181,170.81,121.181,160.165z M180.272,172.447c2.623-3.727,4.02-7.91,4.02-12.282
		c0-7.217-3.782-13.928-10.65-18.896c-6.535-4.728-15.168-7.331-24.306-7.331s-17.771,2.604-24.306,7.331
		c-6.867,4.968-10.649,11.678-10.649,18.896c0,4.262,1.329,8.345,3.823,11.998c-17.234-8.894-28.756-24.894-28.756-43.117
		c0-13.659,6.594-28.681,17.641-40.183c2.236-2.329,4.588-4.459,7.033-6.385c0.152-0.096,0.301-0.202,0.44-0.324
		c0.023-0.021,0.044-0.044,0.066-0.065c10.412-8.035,22.511-12.375,34.89-12.375c15.5,0,30.568,6.8,42.429,19.149
		c11.046,11.502,17.642,26.523,17.642,40.183C209.589,147.464,197.817,163.611,180.272,172.447z M208.604,100.138
		c-0.49-0.9-1.003-1.793-1.537-2.68c9.442-4.469,13.596-20.674,13.789-21.448c0.314-1.261-0.453-2.538-1.714-2.853
		c-1.263-0.316-2.538,0.452-2.854,1.712c-1.164,4.646-5.402,16.212-11.814,18.584c-2.254-3.245-4.799-6.363-7.622-9.302
		c-1.507-1.569-3.065-3.054-4.664-4.459c4.797-4.312,16.976-13.346,32.405-10.605C224.697,75.322,223.509,92.186,208.604,100.138z"
		/>
</g>
<circle fill="#55C57A" cx="75.643" cy="224.406" r="21.667"/>
<circle fill="#55C57A" cx="223.535" cy="76.513" r="21.667"/>
<circle fill="#55C57A" cx="75.643" cy="76.513" r="21.667"/>
<circle fill="#55C57A" cx="223.535" cy="224.405" r="21.667"/>
</svg>
