<?xml version="1.0" encoding="utf-8"?>
<!-- Generator: Adobe Illustrator 16.0.0, SVG Export Plug-In . SVG Version: 6.00 Build 0)  -->
<!DOCTYPE svg PUBLIC "-//W3C//DTD SVG 1.1//EN" "http://www.w3.org/Graphics/SVG/1.1/DTD/svg11.dtd">
<svg version="1.1" id="Ebene_1" xmlns="http://www.w3.org/2000/svg" xmlns:xlink="http://www.w3.org/1999/xlink" x="0px" y="0px"
	 width="300px" height="300px" viewBox="0 0 300 300" enable-background="new 0 0 300 300" xml:space="preserve">
<path fill="#FCEFE0" stroke="#990033" stroke-width="9" stroke-miterlimit="10" d="M289.689,277.691c0,6.627-5.373,12-12,12H22.309
	c-6.627,0-12-5.373-12-12V22.308c0-6.627,5.373-12,12-12h255.38c6.627,0,12,5.373,12,12V277.691z"/>
<g display="none">
	<path display="inline" fill="#FFCAD4" d="M122.306,122.761c-2.375,0-4.308,1.932-4.308,4.308s1.932,4.308,4.308,4.308
		s4.308-1.932,4.308-4.308S124.681,122.761,122.306,122.761z M122.306,127.469c-0.22,0-0.4-0.18-0.4-0.4c0-0.22,0.179-0.4,0.4-0.4
		c0.221,0,0.4,0.179,0.4,0.4C122.706,127.29,122.526,127.469,122.306,127.469z"/>
	<path display="inline" fill="#FFCAD4" d="M176.499,122.761c-2.375,0-4.308,1.932-4.308,4.308s1.933,4.308,4.308,4.308
		c2.376,0,4.31-1.932,4.31-4.308S178.875,122.761,176.499,122.761z M176.499,127.469c-0.222,0-0.399-0.18-0.399-0.4
		c0-0.22,0.18-0.4,0.399-0.4s0.399,0.179,0.399,0.4C176.898,127.29,176.721,127.469,176.499,127.469z"/>
	<path display="inline" fill="#FFCAD4" d="M138.684,153.473c-3.146,0-4.741,3.073-4.741,9.135c0,6.062,1.595,9.137,4.741,9.137
		s4.742-3.073,4.742-9.137C143.426,156.546,141.831,153.473,138.684,153.473z"/>
	<path display="inline" fill="#FFCAD4" d="M157.329,171.744c3.147,0,4.741-3.074,4.741-9.137s-1.596-9.135-4.741-9.135
		s-4.741,3.072-4.741,9.135S154.184,171.744,157.329,171.744z"/>
	<path display="inline" fill="#FFCAD4" d="M231.354,65.915c-0.162-1.399-1.174-2.553-2.539-2.899
		c-20.737-5.269-36.545,7.313-41.879,12.371c-11.199-8.111-24.08-12.477-37.287-12.477c-13.052,0-25.788,4.26-36.895,12.188
		c-5.612-5.229-21.217-17.254-41.571-12.083c-1.366,0.347-2.376,1.5-2.54,2.899c-0.036,0.311-0.866,7.719,1.382,16.485
		c2.729,10.64,8.827,18.711,17.711,23.559c-3.231,7.546-4.958,15.407-4.958,23.084c0,10.82,3.514,20.95,9.613,29.595
		c-3.721,6.495-14.174,27.416-7.869,47.916c4.215,13.699,15.005,24.273,32.072,31.43c0.416,0.174,0.863,0.264,1.314,0.264h29.543
		c0.021,0,0.04-0.002,0.061-0.003h20.876c0.021,0,0.039,0.004,0.06,0.004c0.017,0,0.032-0.003,0.051-0.004h8.493
		c0.451,0,0.896-0.091,1.312-0.265c16.367-6.861,26.978-16.887,31.533-29.797c6.406-18.146-0.977-37.098-5.523-46.15
		c7.686-9.336,12.205-20.718,12.205-32.989c0-7.574-1.684-15.326-4.83-22.778c9.195-4.81,15.496-12.999,18.283-23.865
		C232.221,73.634,231.393,66.227,231.354,65.915z M76.665,80.915c-1.264-4.823-1.435-9.241-1.391-11.83
		c14.998-2.653,27.003,5.889,32.045,10.302c-1.719,1.493-3.39,3.081-5.005,4.762c-2.757,2.872-5.252,5.913-7.467,9.077
		c-6.107-2.802-10.138-13.843-11.269-18.357c-0.314-1.261-1.592-2.029-2.854-1.714c-1.262,0.314-2.029,1.592-1.715,2.854
		c0.189,0.76,4.188,16.363,13.248,21.18c-0.535,0.88-1.048,1.768-1.541,2.662C83.658,95.917,78.934,89.565,76.665,80.915z
		 M203.427,205.92c-3.571,10.123-11.739,18.266-24.297,24.243c6.32-6.674,13.586-17.622,12.974-32.317
		c-0.076-1.877-1.66-3.332-3.537-3.257c-1.877,0.078-3.334,1.663-3.256,3.539c0.777,18.714-14.324,30.729-17.92,33.315h-7.476
		v-8.071c0-1.3-1.054-2.354-2.354-2.354c-1.299,0-2.354,1.055-2.354,2.354v8.071h-4.354v-19.5
		c12.211-1.269,19.312-8.99,19.633-9.348c1.252-1.392,1.139-3.527-0.246-4.785c-1.385-1.26-3.531-1.156-4.797,0.223
		c-0.273,0.298-6.82,7.291-17.99,7.291c-10.977,0-16.602-6.79-16.866-7.116c-1.161-1.464-3.289-1.718-4.762-0.562
		c-1.478,1.158-1.736,3.295-0.578,4.772c0.285,0.363,6.607,8.235,18.805,9.522v19.504h-4.357v-8.074
		c0-1.301-1.054-2.354-2.354-2.354c-1.3,0-2.354,1.053-2.354,2.354v8.074h-7.47c-3.589-2.58-18.704-14.598-17.924-33.317
		c0.078-1.876-1.379-3.461-3.256-3.539c-1.869-0.075-3.461,1.379-3.539,3.256c-0.612,14.702,6.659,25.652,12.979,32.325
		c-13.107-6.236-21.425-14.831-24.744-25.581c-4.878-15.801,2.12-32.649,5.996-40.196c12.162,13.284,31.007,21.864,52.151,21.989
		c0.096,0.001,0.191,0.007,0.286,0.007c0.023,0,0.046-0.003,0.069-0.003c0.037,0,0.076,0.003,0.113,0.003
		c19.706,0,37.445-7.35,49.693-19.017C203.391,176.131,208.512,191.52,203.427,205.92z M121.312,160.162
		c0-10.712,12.63-19.426,28.155-19.426c15.525,0,28.155,8.715,28.155,19.426c0,10.695-12.593,19.398-28.086,19.424
		c-0.119,0-0.236-0.003-0.354-0.004C133.789,179.477,121.312,170.809,121.312,160.162z M180.402,172.443
		c2.623-3.727,4.021-7.909,4.021-12.281c0-7.217-3.782-13.928-10.649-18.896c-6.535-4.728-15.168-7.331-24.307-7.331
		c-9.138,0-17.77,2.604-24.305,7.331c-6.868,4.968-10.65,11.677-10.65,18.896c0,4.262,1.329,8.345,3.824,11.998
		c-17.235-8.895-28.757-24.894-28.757-43.117c0-13.659,6.595-28.681,17.642-40.183c2.236-2.329,4.587-4.459,7.033-6.385
		c0.152-0.096,0.301-0.202,0.44-0.324c0.023-0.021,0.044-0.044,0.066-0.065c10.412-8.035,22.511-12.375,34.89-12.375
		c15.5,0,30.568,6.8,42.429,19.149c11.046,11.502,17.642,26.523,17.642,40.183C209.721,147.462,197.948,163.607,180.402,172.443z
		 M208.734,100.136c-0.489-0.9-1.002-1.793-1.536-2.68c9.442-4.469,13.596-20.674,13.788-21.448
		c0.314-1.261-0.452-2.538-1.713-2.853c-1.264-0.316-2.539,0.452-2.854,1.712c-1.164,4.646-5.401,16.212-11.813,18.584
		c-2.254-3.245-4.799-6.363-7.623-9.302c-1.506-1.569-3.064-3.054-4.664-4.459c4.798-4.312,16.977-13.346,32.406-10.605
		C224.828,75.319,223.641,92.183,208.734,100.136z"/>
</g>
<circle fill="#990033" cx="149.999" cy="149.541" r="21.667"/>
</svg>
