<?xml version="1.0" encoding="utf-8"?>
<!-- Generator: Adobe Illustrator 16.0.0, SVG Export Plug-In . SVG Version: 6.00 Build 0)  -->
<!DOCTYPE svg PUBLIC "-//W3C//DTD SVG 1.1//EN" "http://www.w3.org/Graphics/SVG/1.1/DTD/svg11.dtd">
<svg version="1.1" id="Ebene_1" xmlns="http://www.w3.org/2000/svg" xmlns:xlink="http://www.w3.org/1999/xlink" x="0px" y="0px"
	 width="300px" height="300.003px" viewBox="0 0 300 300.003" enable-background="new 0 0 300 300.003" xml:space="preserve">
<path fill="#FCF7F2" stroke="#212828" stroke-width="9" stroke-miterlimit="10" d="M289.691,278.151c0,6.627-5.373,12-12,12H22.31
	c-6.627,0-12-5.373-12-12V22.769c0-6.627,5.373-12,12-12h255.381c6.627,0,12,5.373,12,12V278.151L289.691,278.151z"/>
<g display="none">
	<path display="inline" fill="#FFCAD4" d="M122.307,123.222c-2.376,0-4.308,1.932-4.308,4.308c0,2.376,1.932,4.308,4.308,4.308
		s4.308-1.932,4.308-4.308C126.615,125.154,124.683,123.222,122.307,123.222z M122.307,127.93c-0.22,0-0.399-0.18-0.399-0.4
		c0-0.22,0.179-0.4,0.399-0.4c0.22,0,0.4,0.179,0.4,0.4C122.707,127.751,122.527,127.93,122.307,127.93z"/>
	<path display="inline" fill="#FFCAD4" d="M176.5,123.222c-2.375,0-4.307,1.932-4.307,4.308c0,2.376,1.932,4.308,4.307,4.308
		c2.376,0,4.309-1.932,4.309-4.308C180.809,125.154,178.876,123.222,176.5,123.222z M176.5,127.93c-0.221,0-0.4-0.18-0.4-0.4
		c0-0.22,0.18-0.4,0.4-0.4s0.4,0.179,0.4,0.4C176.9,127.751,176.721,127.93,176.5,127.93z"/>
	<path display="inline" fill="#FFCAD4" d="M138.685,153.933c-3.146,0-4.74,3.074-4.74,9.135c0,6.062,1.595,9.137,4.74,9.137
		c3.146,0,4.742-3.074,4.742-9.137C143.427,157.007,141.832,153.933,138.685,153.933z"/>
	<path display="inline" fill="#FFCAD4" d="M157.33,172.205c3.146,0,4.742-3.074,4.742-9.138c0-6.062-1.596-9.135-4.742-9.135
		s-4.741,3.073-4.741,9.135C152.589,169.13,154.184,172.205,157.33,172.205z"/>
	<path display="inline" fill="#FFCAD4" d="M231.355,66.376c-0.164-1.399-1.176-2.553-2.541-2.899
		c-20.736-5.269-36.543,7.313-41.877,12.371c-11.199-8.111-24.08-12.477-37.289-12.477c-13.052,0-25.788,4.26-36.895,12.188
		c-5.612-5.229-21.217-17.254-41.571-12.083c-1.365,0.347-2.376,1.5-2.54,2.899c-0.036,0.311-0.866,7.719,1.382,16.485
		c2.729,10.64,8.827,18.711,17.711,23.559c-3.23,7.546-4.958,15.407-4.958,23.084c0,10.82,3.515,20.95,9.612,29.595
		c-3.721,6.493-14.174,27.416-7.868,47.916c4.215,13.698,15.005,24.272,32.072,31.428c0.416,0.175,0.862,0.265,1.314,0.265h29.543
		c0.021,0,0.04-0.002,0.061-0.002h20.876c0.021,0,0.039,0.004,0.06,0.004c0.017,0,0.032-0.004,0.051-0.004h8.493
		c0.449,0,0.896-0.09,1.312-0.267c16.366-6.86,26.978-16.886,31.532-29.795c6.406-18.146-0.978-37.099-5.522-46.151
		c7.686-9.337,12.205-20.717,12.205-32.988c0-7.574-1.685-15.326-4.83-22.778c9.195-4.81,15.494-12.999,18.281-23.865
		C232.223,74.095,231.393,66.688,231.355,66.376z M76.666,81.376c-1.265-4.823-1.435-9.241-1.391-11.83
		c14.998-2.653,27.003,5.889,32.046,10.302c-1.72,1.493-3.391,3.081-5.006,4.762c-2.757,2.872-5.252,5.913-7.467,9.077
		C88.741,90.885,84.712,79.844,83.58,75.33c-0.314-1.261-1.592-2.029-2.854-1.714c-1.262,0.314-2.029,1.592-1.715,2.854
		c0.189,0.76,4.188,16.363,13.248,21.18c-0.534,0.88-1.048,1.768-1.54,2.662C83.659,96.379,78.935,90.027,76.666,81.376z
		 M203.428,206.38c-3.572,10.123-11.74,18.266-24.297,24.244c6.32-6.674,13.586-17.623,12.975-32.318
		c-0.078-1.877-1.662-3.332-3.539-3.256c-1.877,0.078-3.334,1.662-3.256,3.539c0.778,18.713-14.324,30.729-17.92,33.312h-7.475
		v-8.068c0-1.301-1.055-2.354-2.354-2.354c-1.301,0-2.354,1.054-2.354,2.354v8.068h-4.354v-19.496
		c12.211-1.271,19.312-8.992,19.633-9.352c1.252-1.393,1.141-3.523-0.244-4.785c-1.385-1.258-3.531-1.154-4.799,0.225
		c-0.271,0.299-6.818,7.291-17.988,7.291c-10.978,0-16.603-6.789-16.866-7.115c-1.16-1.465-3.289-1.719-4.762-0.562
		c-1.479,1.158-1.736,3.295-0.578,4.773c0.285,0.363,6.607,8.234,18.806,9.521v19.506h-4.357v-8.076
		c0-1.299-1.054-2.354-2.354-2.354c-1.299,0-2.354,1.056-2.354,2.354v8.076h-7.47c-3.589-2.582-18.704-14.602-17.925-33.318
		c0.078-1.877-1.379-3.461-3.256-3.539c-1.868-0.076-3.461,1.379-3.538,3.256c-0.612,14.701,6.659,25.652,12.979,32.324
		c-13.107-6.236-21.425-14.83-24.744-25.58c-4.879-15.801,2.119-32.65,5.996-40.197c12.162,13.285,31.007,21.865,52.151,21.99
		c0.096,0,0.191,0.006,0.286,0.006c0.023,0,0.046-0.002,0.069-0.002c0.037,0,0.076,0.002,0.113,0.002
		c19.707,0,37.445-7.35,49.693-19.016C203.391,176.591,208.512,191.979,203.428,206.38z M121.313,160.623
		c0-10.709,12.63-19.423,28.154-19.423c15.524,0,28.155,8.715,28.155,19.423c0,10.694-12.593,19.397-28.086,19.424
		c-0.119,0-0.236-0.002-0.354-0.004C133.79,179.937,121.313,171.269,121.313,160.623z M180.404,172.905
		c2.623-3.728,4.02-7.909,4.02-12.282c0-7.218-3.781-13.927-10.65-18.895c-6.533-4.728-15.168-7.331-24.306-7.331
		c-9.139,0-17.77,2.604-24.305,7.331c-6.869,4.968-10.65,11.677-10.65,18.895c0,4.262,1.329,8.346,3.824,11.998
		c-17.236-8.894-28.758-24.893-28.758-43.117c0-13.659,6.596-28.681,17.643-40.183c2.236-2.329,4.586-4.459,7.032-6.385
		c0.152-0.096,0.301-0.202,0.44-0.324c0.023-0.021,0.044-0.044,0.066-0.065c10.412-8.035,22.512-12.375,34.89-12.375
		c15.5,0,30.568,6.8,42.429,19.149c11.046,11.502,17.642,26.523,17.642,40.183C209.721,147.923,197.949,164.069,180.404,172.905z
		 M208.736,100.597c-0.49-0.9-1.004-1.793-1.537-2.68c9.441-4.469,13.596-20.674,13.789-21.448c0.312-1.261-0.453-2.538-1.715-2.853
		c-1.264-0.316-2.537,0.452-2.854,1.712c-1.164,4.646-5.401,16.212-11.813,18.584c-2.254-3.245-4.799-6.363-7.621-9.302
		c-1.508-1.569-3.065-3.054-4.664-4.459c4.797-4.312,16.976-13.346,32.404-10.605C224.829,75.781,223.641,92.645,208.736,100.597z"
		/>
</g>
<g>
	<path fill="#212828" d="M252.867,109.438c-2.51-4.749-5.06-7.711-8.026-9.32c-2.943-1.595-6.255-1.748-9.844-0.448
		c-6.885,2.531-14.751,7.583-21.726,13.938c-2.398-3.437-5.059-6.539-8.063-9.398c0.34,0.096,0.683,0.195,1.032,0.297
		c2.444,0.709,4.974,1.442,7.541,1.385c1.338-0.03,2.644-0.922,3.33-2.277c0.561-1.106,0.585-2.304,0.087-3.289
		c0.218-1.291-0.172-2.333-1.176-3.169c-6.738-5.726-14.115-10.776-21.928-15.012c-12.809-6.945-26.231-11.479-39.913-13.481
		c1.485-6.825,1.045-13.806-1.236-19.301c-1.387-3.443-3.44-5.867-6.281-7.407c-3.985-2.161-8.954-2.192-13.304-1.936
		c-17.863,1.333-52.16,9.217-54.126,29.504c-0.594,5.086,1.418,10.629,3.807,16.347c-24.162,18.327-36.528,46.796-32.305,74.475
		c4.203,29.408,23.983,55.074,55.701,72.272c0,0,0,0,0.002,0.001c6.652,3.607,13.712,6.747,20.978,9.336
		c19.604,6.955,36.872,8.461,51.326,4.476c16.875-4.692,30.999-18.444,39.786-38.743c3.254-7.999,5.696-16.397,7.27-24.974
		c10.342-0.367,22.929-3.393,28.16-10.87C265.415,155.686,262.31,126.865,252.867,109.438z M208.275,164.695
		c-1.155-10.291,16.01-28.118,23.34-35.728c1.062-1.107,1.941-2.02,2.55-2.684c1.002-1.067,1.432-2.41,1.21-3.782
		c-0.24-1.495-1.247-2.888-2.622-3.633c-1.863-1.011-3.94-0.635-5.416,0.973c-0.803,0.862-1.854,1.945-3.083,3.21
		c-9.594,9.879-29.554,30.439-28.603,44.585c0.248,3.654,1.857,6.673,4.8,8.983c0.826,0.632,1.764,1.233,2.787,1.789
		c3.398,1.842,7.647,3.151,12.34,3.807c-2.598,12.616-7.474,24.293-14.137,33.838c-20.97,30.47-60.072,24.181-89.671,8.135
		c-9.744-5.284-18.741-11.746-26.015-18.689c-17.143-16.396-26.258-38.544-25.007-60.772c1.118-19.854,10.526-37.652,26.528-50.249
		c0.208,0.429,0.417,0.833,0.611,1.212c0.243,0.468,0.471,0.911,0.657,1.317l0.5,1.159c2.172,5.064,5.149,12.001,10.366,14.83
		c1.795,0.974,3.741,1.388,5.774,1.232c8.057-0.546,14.772-9.534,19.674-16.096c0.517-0.69,1.008-1.35,1.473-1.958
		c7.982-10.427,10.564-16.167,14.483-30.4c0.558-1.951-0.171-3.744-1.898-4.681c-1.253-0.679-2.828-0.762-4.107-0.214
		c-1.174,0.502-2.012,1.483-2.354,2.735c-4.812,15.935-8.97,22.936-18.672,33.135c-0.712,0.726-1.341,1.442-1.951,2.136
		c-2.677,3.042-4.096,4.438-7.121,2.975c-2.508-1.191-3.585-3.437-4.843-6.076c-0.385-0.807-0.782-1.642-1.205-2.402
		c-0.636-1.386-1.398-2.901-2.205-4.502c-2.34-4.646-4.991-9.912-5.617-14.149c-0.669-4.746,0.982-16.436,30.733-22.485l0.744-0.166
		c5.52-1.237,13.08-2.931,18.091-0.213c1.459,0.791,2.586,1.887,3.442,3.351c2.443,4.2,1.644,10.685,1,15.895
		c-0.162,1.311-0.315,2.548-0.416,3.711c-0.102,1.299,0.562,2.468,1.778,3.128c1.311,0.71,2.961,0.674,4.108-0.05
		c15.852,1.99,31.893,7.646,47.497,16.81c-2.056-0.062-4.097,0.123-5.878,0.861c-0.768,0.237-1.285,0.599-1.751,0.923l-0.143,0.121
		c-1.698,1.735-1.782,4.317-0.179,6.161c6.046,6.575,11.059,12.938,15.299,19.423l-0.082,0.122c-0.48,0.707-0.639,1.539-0.443,2.343
		c0.221,0.905,0.883,1.734,1.771,2.216c1.104,0.598,2.325,0.562,3.236-0.074c1.895-1.223,4.161-3.01,6.563-4.9
		c7.81-6.155,17.529-13.815,23.958-10.33c1.803,0.979,3.314,2.847,4.494,5.55c5.824,13.474,7.269,28.098,3.869,39.11
		c-1.568,4.923-5.129,11.227-8.655,13.224c-1.748,1.032-5.718,1.117-8.342,1.173c-0.624,0.013-1.198,0.026-1.742,0.05
		c-0.585,0.054-1.226,0.118-1.905,0.188c-4.846,0.494-12.169,1.243-15.938-0.8c-0.162-0.089-0.317-0.183-0.472-0.285
		C209.566,168.526,208.518,166.861,208.275,164.695z"/>
	<path fill="#212828" d="M162.229,187.153c-0.569-2.989-1.576-5.723-2.997-8.126l-0.415-0.485c-0.325-0.362-0.66-0.738-1.16-1.061
		c-4.848-8.313-12.422-15.551-21.357-20.396c-8.387-4.548-17.212-6.598-25.513-5.934c-9.715,0.761-18.12,5.679-23.063,13.498
		c-5.037,7.97-5.894,17.86-2.341,27.143c3.504,8.914,11.266,16.986,21.86,22.73c0,0,0,0,0,0.001
		c9.583,5.196,20.546,7.903,30.091,7.429c6.41-0.442,12.583-3.86,17.382-9.627c5.574-6.695,8.505-15.746,7.685-23.686
		C162.61,188.056,162.499,187.525,162.229,187.153z M150.839,182.5c2.53,7.748,1.277,15.186-3.44,20.403
		c-4.815,5.327-12.409,7.479-20.315,5.755c-5.966-1.297-11.573-3.309-16.211-5.824c-8.804-4.774-13.966-11.091-15.351-18.788
		c-1.305-6.735,0.291-12.367,4.618-16.284c5.636-5.102,15.561-6.692,24.689-3.96c2.957,0.912,5.888,2.153,8.72,3.688
		c6.432,3.487,12.359,8.508,17.145,14.521L150.839,182.5z"/>
	<path fill="#212828" d="M111.764,174.815c-0.812-0.441-1.684-0.697-2.572-0.754c-2.206-0.187-4.28,0.806-5.545,2.653
		c-1.338,1.952-1.525,4.482-0.476,6.633c0.467,0.884,1.157,1.345,1.772,1.692c0.201,0.329,0.468,0.517,0.673,0.636
		c0.371,0.364,0.778,0.665,1.213,0.9c1.415,0.768,3.13,0.807,4.708,0.104c1.867-0.832,3.268-2.515,3.754-4.541
		C115.859,179.31,114.377,176.232,111.764,174.815z"/>
	<path fill="#212828" d="M128.663,191.196c-0.727,3.001,0.633,5.925,3.478,7.468c0,0,0,0,0.001,0.001
		c1.776,0.962,3.904,1.229,5.873,0.723c2.242-0.664,3.96-2.341,4.719-4.593c0.841-2.499,0.386-5.381-1.22-7.561
		c-1.834-2.205-4.603-3.104-7.345-2.481c-2.575,0.381-4.565,2.372-5.108,5.091C128.854,190.228,128.697,190.58,128.663,191.196z"/>
	<path fill="#212828" d="M101.047,133.948c0.022-2.721-1.636-5.443-4.169-6.816c-0.195-0.105-0.394-0.203-0.584-0.286
		c-3.281-1.465-7.067-0.662-9.402,1.98c-1.77,1.898-2.515,4.359-2.096,6.929c0.436,2.671,2.078,5.015,4.389,6.271c0,0,0,0,0.001,0
		c1.364,0.739,2.919,1.062,4.562,0.927c4.136-0.612,7.025-3.641,7.251-7.57C101.237,134.798,101.145,134.298,101.047,133.948z"/>
	<path fill="#212828" d="M176.097,186.29c-1.174,1.64-1.633,3.825-1.324,6.315l0.033,0.159c0.03,0.107,0.037,0.253,0.049,0.394
		c0.022,0.262,0.049,0.527,0.125,0.786c0.628,2.12,2.087,3.894,4.104,4.988c0.919,0.498,1.93,0.846,3.075,1.046
		c3.812,0.39,7.684-1.428,9.631-4.524c1.611-2.565,1.578-5.599-0.062-8.268c-0.822-1.554-2.066-2.814-3.603-3.647
		C183.973,181.287,178.801,182.47,176.097,186.29z"/>
</g>
</svg>
