<?xml version="1.0" encoding="utf-8"?>
<!-- Generator: Adobe Illustrator 16.0.0, SVG Export Plug-In . SVG Version: 6.00 Build 0)  -->
<!DOCTYPE svg PUBLIC "-//W3C//DTD SVG 1.1//EN" "http://www.w3.org/Graphics/SVG/1.1/DTD/svg11.dtd">
<svg version="1.1" id="Ebene_1" xmlns="http://www.w3.org/2000/svg" xmlns:xlink="http://www.w3.org/1999/xlink" x="0px" y="0px"
	 width="300px" height="300.003px" viewBox="0 0 300 300.003" enable-background="new 0 0 300 300.003" xml:space="preserve">
<path fill="#FCF7F2" stroke="#212828" stroke-width="9" stroke-miterlimit="10" d="M288.648,278.45c0,6.627-5.373,12-12,12H21.267
	c-6.627,0-12-5.373-12-12V23.067c0-6.627,5.373-12,12-12h255.382c6.627,0,12,5.373,12,12V278.45z"/>
<g display="none">
	<path display="inline" fill="#FFCAD4" d="M121.264,123.52c-2.376,0-4.308,1.932-4.308,4.308s1.932,4.308,4.308,4.308
		s4.308-1.932,4.308-4.308S123.64,123.52,121.264,123.52z M121.264,128.228c-0.22,0-0.399-0.18-0.399-0.4s0.179-0.4,0.399-0.4
		s0.4,0.179,0.4,0.4S121.484,128.228,121.264,128.228z"/>
	<path display="inline" fill="#FFCAD4" d="M175.457,123.52c-2.375,0-4.307,1.932-4.307,4.308s1.932,4.308,4.307,4.308
		c2.376,0,4.309-1.932,4.309-4.308S177.833,123.52,175.457,123.52z M175.457,128.228c-0.221,0-0.4-0.18-0.4-0.4s0.18-0.4,0.4-0.4
		s0.4,0.179,0.4,0.4S175.678,128.228,175.457,128.228z"/>
	<path display="inline" fill="#FFCAD4" d="M137.642,154.231c-3.146,0-4.74,3.074-4.74,9.135c0,6.062,1.595,9.137,4.74,9.137
		c3.146,0,4.742-3.074,4.742-9.137C142.384,157.305,140.789,154.231,137.642,154.231z"/>
	<path display="inline" fill="#FFCAD4" d="M156.287,172.502c3.147,0,4.742-3.074,4.742-9.137c0-6.061-1.596-9.135-4.742-9.135
		s-4.741,3.074-4.741,9.135C151.546,169.428,153.141,172.502,156.287,172.502z"/>
	<path display="inline" fill="#FFCAD4" d="M230.312,66.674c-0.163-1.399-1.175-2.553-2.54-2.899
		c-20.737-5.269-36.544,7.313-41.878,12.371c-11.199-8.111-24.08-12.477-37.287-12.477c-13.052,0-25.788,4.26-36.895,12.188
		c-5.612-5.229-21.217-17.254-41.571-12.083c-1.365,0.347-2.376,1.5-2.54,2.899c-0.036,0.311-0.866,7.719,1.382,16.485
		c2.729,10.64,8.827,18.711,17.711,23.559c-3.23,7.546-4.958,15.407-4.958,23.084c0,10.82,3.515,20.95,9.612,29.595
		c-3.721,6.494-14.174,27.416-7.868,47.916c4.215,13.699,15.005,24.273,32.072,31.428c0.416,0.174,0.862,0.264,1.314,0.264h29.543
		c0.021,0,0.04-0.002,0.061-0.002h20.877c0.02,0,0.039,0.004,0.059,0.004c0.017,0,0.033-0.004,0.051-0.004h8.493
		c0.451,0,0.897-0.09,1.313-0.266c16.367-6.861,26.977-16.885,31.533-29.795c6.406-18.146-0.977-37.098-5.523-46.152
		c7.685-9.336,12.205-20.717,12.205-32.988c0-7.574-1.684-15.326-4.83-22.778c9.195-4.81,15.495-12.999,18.282-23.865
		C231.179,74.393,230.35,66.986,230.312,66.674z M75.623,81.674c-1.265-4.823-1.435-9.241-1.391-11.83
		c14.998-2.653,27.003,5.889,32.046,10.302c-1.72,1.493-3.391,3.081-5.006,4.762c-2.757,2.872-5.252,5.913-7.467,9.077
		c-6.107-2.802-10.137-13.843-11.269-18.357c-0.314-1.261-1.592-2.029-2.854-1.714c-1.262,0.314-2.029,1.592-1.715,2.854
		c0.189,0.76,4.188,16.363,13.248,21.18c-0.534,0.88-1.048,1.768-1.54,2.662C82.616,96.677,77.892,90.325,75.623,81.674z
		 M202.385,206.678c-3.572,10.123-11.74,18.266-24.297,24.244c6.32-6.674,13.586-17.623,12.974-32.318
		c-0.077-1.877-1.661-3.332-3.538-3.256c-1.877,0.078-3.334,1.662-3.256,3.539c0.778,18.713-14.324,30.729-17.92,33.314h-7.475
		v-8.07c0-1.301-1.054-2.354-2.354-2.354c-1.3,0-2.354,1.053-2.354,2.354v8.07h-4.354v-19.498c12.211-1.27,19.312-8.992,19.633-9.35
		c1.252-1.391,1.139-3.525-0.246-4.785c-1.384-1.258-3.531-1.156-4.797,0.223c-0.273,0.299-6.82,7.291-17.99,7.291
		c-10.978,0-16.603-6.789-16.866-7.115c-1.16-1.465-3.289-1.719-4.762-0.562c-1.479,1.158-1.736,3.295-0.578,4.773
		c0.285,0.363,6.607,8.234,18.806,9.523v19.504h-4.357v-8.076c0-1.299-1.054-2.354-2.354-2.354c-1.299,0-2.354,1.055-2.354,2.354
		v8.076h-7.47c-3.589-2.582-18.704-14.6-17.925-33.318c0.078-1.877-1.379-3.461-3.256-3.539c-1.868-0.076-3.461,1.379-3.538,3.256
		c-0.612,14.701,6.659,25.652,12.979,32.324c-13.107-6.236-21.425-14.83-24.744-25.58c-4.879-15.801,2.119-32.65,5.996-40.197
		c12.162,13.285,31.007,21.865,52.151,21.99c0.096,0,0.191,0.006,0.286,0.006c0.023,0,0.046-0.002,0.069-0.002
		c0.037,0,0.076,0.002,0.113,0.002c19.705,0,37.445-7.35,49.693-19.016C202.348,176.889,207.469,192.278,202.385,206.678z
		 M120.271,160.92c0-10.71,12.63-19.425,28.154-19.425s28.155,8.714,28.155,19.425c0,10.695-12.593,19.398-28.086,19.424
		c-0.119,0-0.236-0.002-0.354-0.004C132.747,180.235,120.271,171.567,120.271,160.92z M179.361,173.204
		c2.623-3.727,4.02-7.91,4.02-12.283c0-7.217-3.782-13.927-10.65-18.895c-6.535-4.728-15.168-7.331-24.306-7.331
		c-9.139,0-17.77,2.604-24.305,7.331c-6.869,4.968-10.65,11.678-10.65,18.895c0,4.262,1.329,8.346,3.824,11.998
		c-17.236-8.893-28.758-24.893-28.758-43.116c0-13.659,6.596-28.681,17.643-40.183c2.236-2.329,4.586-4.459,7.032-6.385
		c0.152-0.096,0.301-0.202,0.44-0.324c0.023-0.021,0.044-0.044,0.066-0.065c10.412-8.035,22.512-12.375,34.89-12.375
		c15.5,0,30.568,6.8,42.429,19.149c11.046,11.502,17.642,26.523,17.642,40.183C208.678,148.222,196.906,164.368,179.361,173.204z
		 M207.693,100.895c-0.49-0.9-1.003-1.793-1.537-2.68c9.442-4.469,13.596-20.674,13.789-21.448c0.314-1.261-0.453-2.538-1.714-2.853
		c-1.263-0.316-2.538,0.452-2.854,1.712c-1.164,4.646-5.402,16.212-11.814,18.584c-2.254-3.245-4.799-6.363-7.622-9.302
		c-1.507-1.569-3.065-3.054-4.664-4.459c4.797-4.312,16.976-13.346,32.405-10.605C223.786,76.079,222.598,92.942,207.693,100.895z"
		/>
</g>
<circle fill="#55C57A" cx="75.643" cy="224.406" r="21.667"/>
<circle fill="#55C57A" cx="223.535" cy="76.513" r="21.667"/>
<circle fill="#55C57A" cx="75.643" cy="76.513" r="21.667"/>
<circle fill="#55C57A" cx="223.535" cy="224.405" r="21.667"/>
<circle fill="#55C57A" cx="150" cy="149.541" r="21.667"/>
</svg>
