<?xml version="1.0" standalone="no"?>
<!DOCTYPE svg PUBLIC "-//W3C//DTD SVG 20010904//EN"
 "http://www.w3.org/TR/2001/REC-SVG-20010904/DTD/svg10.dtd">
<svg version="1.0" xmlns="http://www.w3.org/2000/svg"
 width="700.000000pt" height="700.000000pt" viewBox="0 0 700.000000 700.000000"
 preserveAspectRatio="xMidYMid meet">
<metadata>
Created by potrace 1.11, written by Peter Selinger 2001-2013
</metadata>
<g transform="translate(0.000000,700.000000) scale(0.100000,-0.100000)"
fill="#000000" stroke="none">
<path d="M1530 6571 c-111 -37 -175 -70 -285 -144 -554 -372 -957 -816 -1083
-1192 -41 -120 -51 -183 -47 -285 4 -103 9 -126 42 -210 46 -116 147 -239 308
-373 36 -31 59 -57 57 -66 -2 -9 -18 -52 -36 -96 -86 -209 -157 -468 -181
-650 -3 -27 -8 -59 -10 -70 -21 -96 -26 -450 -9 -610 17 -158 20 -174 45 -285
11 -52 24 -111 29 -130 12 -56 64 -208 104 -303 270 -651 833 -1188 1551
-1479 128 -53 370 -132 465 -154 19 -4 37 -8 40 -9 3 -1 32 -7 65 -15 33 -7
65 -15 70 -16 6 -1 39 -7 75 -13 36 -6 75 -13 86 -15 42 -8 97 -16 149 -21 28
-3 61 -7 71 -9 20 -4 135 -14 249 -21 81 -6 413 -5 500 0 121 7 283 22 340 30
17 2 53 7 80 10 47 6 129 19 185 30 14 3 52 10 85 16 186 33 455 111 645 187
596 238 970 596 1163 1113 33 88 71 214 82 271 14 72 28 147 32 173 2 17 6 41
8 55 24 165 24 555 -1 683 -2 11 -6 43 -9 71 -5 40 -36 210 -60 326 -7 35 -55
212 -78 290 -14 47 -25 85 -24 86 1 0 47 31 102 67 276 183 483 427 534 632
16 61 22 262 10 336 -5 30 -11 71 -14 92 -39 260 -211 613 -446 917 -76 99
-314 344 -384 396 -22 16 -46 35 -53 42 -28 26 -210 140 -266 166 -210 99
-373 77 -516 -67 -110 -111 -288 -403 -362 -592 -10 -27 -25 -63 -33 -80 -7
-16 -17 -42 -20 -57 -4 -16 -10 -28 -14 -28 -4 0 -48 17 -97 39 -49 21 -125
50 -169 65 -44 15 -87 30 -95 33 -8 3 19 13 60 23 178 41 240 82 253 166 5 34
-25 114 -43 114 -5 0 -10 6 -10 13 0 35 -51 60 -165 81 -112 21 -145 26 -180
31 -22 2 -58 7 -80 10 -281 38 -751 41 -1025 6 -150 -20 -284 -42 -370 -62
-25 -6 -56 -13 -68 -15 -66 -13 -285 -76 -374 -108 -37 -14 -70 -21 -72 -17
-3 4 -16 37 -30 74 -62 164 -142 294 -249 400 -168 167 -333 214 -527 148z
m255 -384 c112 -52 193 -166 289 -402 91 -223 90 -221 152 -235 44 -10 90 4
122 38 42 44 458 172 689 212 35 5 75 12 90 15 37 7 73 12 163 24 69 9 113 13
270 26 63 5 247 8 370 6 l85 -1 -55 -36 c-71 -46 -128 -110 -136 -151 -18 -93
29 -153 147 -193 41 -13 85 -30 99 -37 14 -7 30 -13 35 -13 12 0 190 -74 300
-124 174 -80 265 -131 265 -148 0 -53 52 -98 113 -98 56 0 88 36 142 157 27
59 63 140 80 178 18 39 43 95 56 125 69 164 174 336 254 415 102 104 221 128
335 71 128 -65 366 -291 516 -491 164 -218 287 -485 310 -669 3 -22 7 -43 10
-48 7 -11 5 -244 -2 -288 -21 -132 -61 -195 -163 -260 -39 -25 -129 -82 -199
-127 -273 -178 -390 -233 -487 -234 -82 -1 -130 17 -176 68 -102 109 -127 335
-78 690 5 39 12 82 15 95 8 37 12 60 19 103 3 22 10 58 16 80 6 22 13 51 16
65 2 14 18 77 34 140 16 63 31 122 33 130 3 8 21 80 42 160 l38 146 -24 49
c-54 108 -204 124 -266 30 -17 -25 -94 -293 -149 -515 -25 -101 -45 -183 -49
-202 -23 -108 -57 -291 -62 -328 -3 -25 -8 -48 -9 -51 -2 -3 -7 -41 -10 -84
-4 -43 -9 -88 -11 -99 -2 -12 -5 -86 -5 -166 -1 -288 46 -453 162 -570 137
-138 360 -162 665 -71 38 11 74 20 79 19 25 -4 88 -277 129 -558 26 -179 24
-498 -5 -703 -41 -299 -165 -585 -347 -804 -302 -362 -782 -611 -1402 -727
-74 -14 -160 -28 -190 -32 -30 -3 -66 -8 -80 -9 -203 -26 -785 -26 -929 0 -9
1 -43 6 -76 9 -60 7 -113 15 -144 21 -9 1 -36 6 -61 10 -94 14 -409 96 -502
129 -755 273 -1315 808 -1573 1500 -33 88 -86 277 -99 346 -22 125 -23 138
-32 236 -13 147 -8 364 10 494 13 89 20 124 37 200 31 132 116 398 134 418 6
7 51 -22 131 -83 250 -192 383 -255 532 -251 63 2 90 8 136 30 188 92 286 304
356 771 11 77 23 154 26 170 38 242 37 552 -3 745 -8 42 -11 57 -16 90 -5 31
-34 159 -49 215 -22 83 -77 123 -153 111 -64 -11 -98 -39 -120 -101 -10 -30
-10 -50 1 -104 72 -363 86 -605 49 -879 -8 -59 -46 -234 -81 -372 -14 -58 -27
-109 -28 -115 -5 -22 -19 -62 -33 -92 -26 -57 -125 -79 -213 -48 -85 30 -565
378 -675 489 -100 102 -128 163 -132 291 -4 92 -1 107 29 195 78 223 234 418
568 713 270 237 407 315 555 316 53 1 82 -5 120 -22z"/>
<path d="M1500 3310 c-182 -62 -244 -292 -117 -436 107 -122 282 -136 391 -31
62 61 88 120 85 201 -6 195 -183 326 -359 266z"/>
<path d="M5100 3119 c-129 -19 -235 -120 -257 -244 -12 -67 -7 -107 24 -172
51 -107 133 -163 247 -168 119 -5 233 65 291 181 25 49 30 70 30 134 0 91 -23
141 -87 193 -85 69 -155 90 -248 76z"/>
<path d="M3107 3074 c-1 -1 -33 -4 -72 -8 -146 -14 -319 -53 -402 -91 -17 -8
-35 -15 -40 -15 -16 0 -168 -82 -238 -128 -87 -58 -218 -187 -271 -267 -110
-166 -162 -321 -169 -505 -17 -446 270 -844 730 -1013 210 -77 364 -102 625
-102 212 0 304 10 480 51 266 62 490 165 629 289 159 143 270 435 265 700 -1
71 -13 195 -20 206 -2 4 -6 24 -10 45 -21 131 -123 329 -220 427 -69 70 -172
147 -197 147 -7 0 -68 27 -134 60 -278 139 -533 200 -851 204 -57 1 -104 1
-105 0z m433 -363 c116 -17 275 -57 385 -97 89 -33 106 -43 153 -93 198 -208
252 -494 138 -726 -47 -95 -94 -155 -174 -221 -84 -70 -199 -126 -325 -159
-127 -34 -130 -35 -297 -60 -82 -13 -400 -14 -445 -2 -11 3 -41 10 -67 16
-133 31 -259 91 -352 168 -124 102 -233 277 -252 401 -43 289 161 569 519 711
78 31 185 56 297 69 87 11 327 6 420 -7z"/>
<path d="M3683 2285 c-57 -17 -118 -63 -145 -110 -52 -90 -16 -266 67 -329
109 -84 286 -50 359 68 46 74 44 182 -5 256 -69 103 -171 146 -276 115z"/>
<path d="M2693 2151 c-106 -49 -152 -171 -102 -276 32 -69 73 -99 156 -114 88
-17 133 -9 180 32 93 82 98 223 11 307 -70 68 -164 87 -245 51z"/>
</g>
</svg>
